<svg width="95" height="86" viewBox="0 0 95 86" fill="none" xmlns="http://www.w3.org/2000/svg">
    <path fill-rule="evenodd" clip-rule="evenodd"
          d="M0.856781 0.142883V85.8572H94.5851V0.142883H0.856781ZM92.4375 2.28915V11.1609H3.00271V2.28915H92.4375ZM3.00271 83.8544V13.3078H92.4375V83.8544H3.00271ZM77.1274 5.72331H79.2737V7.86957H77.1274V5.72331ZM84.7099 5.72331H82.5637V7.86957H84.7099V5.72331ZM71.6899 5.72331H73.8362V7.86957H71.6899V5.72331ZM64.9632 5.72331H9.87159V7.86957H64.9632V5.72331ZM66.825 62.5328L64.1065 58.5264C64.9649 56.9524 65.6805 55.2351 66.1099 53.5184L70.832 52.66V45.0762L66.1099 44.2178C65.6804 42.5004 64.9654 40.7836 63.9637 39.2097L66.6828 35.2027L61.2446 29.7638L57.2375 32.4829C55.6635 31.6246 53.9462 30.9089 52.2295 30.4795L51.3711 25.7575H43.7873L42.9289 30.4795C41.2115 30.909 39.4948 31.624 37.9209 32.6258L33.9138 29.9067L28.4763 35.3442L31.1954 39.3513C30.337 40.9253 29.6214 42.6426 29.192 44.3593L24.4686 45.2183V52.8022L29.1906 53.6605C29.6201 55.3779 30.3351 57.0947 31.3369 58.6686L28.6178 62.6756L34.056 68.1138L38.063 65.3947C39.637 66.3965 41.3543 66.9687 43.0711 67.3981L43.9295 72.1202H51.5133L52.3717 67.3981C54.0891 66.9686 55.8058 66.2537 57.3797 65.2519L61.3867 67.971L66.825 62.5328ZM57.5237 62.6762L56.9515 63.1057C55.2341 64.2501 53.374 64.9657 51.3704 65.3953L50.6548 65.5387L49.7964 69.9738H45.7894L44.931 65.538L44.2154 65.3946C42.212 64.9651 40.3517 64.2501 38.6343 63.105L38.0621 62.6755L34.3419 65.2519L31.4801 62.3901L34.0559 58.67L33.4837 58.0971C32.3392 56.3797 31.6236 54.5196 31.194 52.516L31.0507 51.8004L26.6148 51.0848V47.0777L31.0507 46.2194L31.194 45.5037C31.6235 43.5003 32.3385 41.6401 33.4837 39.9227L33.9131 39.3504L31.194 35.4881L34.0558 32.6263L37.776 35.2021L38.3482 34.7726C40.0656 33.6281 41.9257 32.9125 43.9293 32.483L44.6449 32.3396L45.3606 27.9037H49.3676L50.226 32.3396L50.9416 32.483C52.945 32.9125 54.8053 33.6274 56.5227 34.7726L57.0949 35.2021L60.8151 32.6263L63.6769 35.4881L61.1011 39.2082L61.5306 39.7805C62.6751 41.4979 63.3907 43.358 63.8202 45.3616L63.9636 46.0772L68.3994 46.7928V50.7998L63.9636 51.6582L64.1063 52.3732C63.6768 54.3766 62.9618 56.2369 61.8167 57.9543L61.3872 58.5265L63.963 62.2467L61.1012 65.1085L57.5237 62.6762ZM37.4894 48.9383C37.4894 43.2145 42.068 38.6353 47.649 38.6353C53.2301 38.6353 57.8087 43.2145 57.8087 48.795C57.8087 54.5187 53.2301 59.0979 47.649 59.0979C42.0686 59.0979 37.4894 54.5194 37.4894 48.9383ZM39.4924 48.9388C39.4924 53.3747 43.2132 56.9521 47.649 56.9521C52.0849 56.9521 55.8058 53.2313 55.5191 48.7954C55.5191 44.3596 51.9416 40.7821 47.5057 40.7821C43.0698 40.7821 39.4924 44.5029 39.4924 48.9388ZM17.3144 22.466H34.7725V20.3197H15.1685V35.0586H17.3154L17.3144 22.466ZM15.1678 62.6757H17.3147L17.3137 75.4111H34.7718V77.5574H15.1678V62.6757ZM77.9853 75.4117H60.5272V77.5579H80.1312V62.6763H77.9843L77.9853 75.4117ZM77.9866 22.466H60.5285L60.5295 20.3197H80.1335V35.0586H77.9866V22.466Z"
          fill="url(#paint0_linear_4_205)"/>
    <defs>
        <linearGradient id="paint0_linear_4_205" x1="6.97923" y1="9.32656" x2="87.1833" y2="85.8572"
                        gradientUnits="userSpaceOnUse">
            <stop stop-color="#2BBCA5"/>
            <stop offset="1" stop-color="#2BBCA5"/>
        </linearGradient>
    </defs>
</svg>
