<svg width="105" height="96" viewBox="0 0 105 96" fill="none" xmlns="http://www.w3.org/2000/svg">
    <path fill-rule="evenodd" clip-rule="evenodd"
          d="M6.36589 73.9971H43.9703V82.1849H36.8582C30.3672 82.1849 25.0858 87.4656 25.0858 93.9573C25.0858 94.612 25.6169 95.143 26.2715 95.143H79.0721H79.0735C79.7282 95.143 80.2592 94.6128 80.2592 93.9573C80.2592 87.4663 74.9785 82.1849 68.4869 82.1849H61.371V73.9971H98.9756H98.9765C102.211 73.9971 104.842 71.3656 104.842 68.1312V59.0206C104.842 59.0038 104.843 58.987 104.843 58.97C104.843 58.9531 104.842 58.9362 104.842 58.9194V6.72307C104.842 3.48864 102.21 0.857178 98.9756 0.857178H6.36589C3.13146 0.857178 0.5 3.48864 0.5 6.72307V68.1312C0.5 71.3656 3.13146 73.9971 6.36589 73.9971ZM58.9996 82.1849H46.3417V73.9971H58.9996V82.1849ZM60.2346 71.626H98.9756C100.902 71.626 102.47 70.0583 102.47 68.1316L102.47 60.1557H2.87151V68.1316C2.87151 70.0584 4.43918 71.626 6.36589 71.626H45.1067L45.1136 71.6257L45.1368 71.6251L45.156 71.625C45.1725 71.625 45.1889 71.6253 45.2053 71.626H60.136C60.1523 71.6253 60.1688 71.625 60.1853 71.625C60.2018 71.625 60.2182 71.6253 60.2346 71.626ZM102.47 57.7843L102.471 6.7235C102.471 4.79674 100.903 3.22912 98.9765 3.22912H6.36589C4.43913 3.22912 2.87151 4.79679 2.87151 6.7235V57.7843H102.47ZM27.5312 92.7715H77.8125C77.2281 88.1455 73.2678 84.5562 68.486 84.5562H36.8572C32.0746 84.5562 28.1153 88.1455 27.5308 92.7715H27.5312ZM28.4552 28.8701C28.5577 28.8972 28.661 28.9107 28.7626 28.9107C29.286 28.9107 29.7654 28.5609 29.9077 28.0316L34.6548 10.3164C34.8242 9.68375 34.449 9.03332 33.8163 8.86394C33.1837 8.69456 32.5333 9.06974 32.3639 9.7024L27.6167 27.4176C27.4474 28.0502 27.8225 28.7007 28.4552 28.8701ZM91.2971 11.1949H57.1112C56.4565 11.1949 55.9255 10.6639 55.9255 10.0092C55.9255 9.35451 56.4565 8.82347 57.1112 8.82347H91.2962C91.9509 8.82347 92.4819 9.35449 92.4819 10.0092C92.4819 10.6638 91.9517 11.1949 91.2971 11.1949ZM57.1112 19.3947H91.2971C91.9517 19.3947 92.4819 18.8637 92.4819 18.209C92.4819 17.5543 91.9509 17.0233 91.2962 17.0233H57.1112C56.4565 17.0233 55.9255 17.5543 55.9255 18.209C55.9255 18.8637 56.4565 19.3947 57.1112 19.3947ZM75.833 52.19H72.5799C71.9252 52.19 71.3942 51.659 71.3942 51.0043V49.169C70.3491 48.9014 69.3404 48.4838 68.4113 47.9325L67.1129 49.2309C66.6505 49.6941 65.8993 49.6941 65.436 49.2309L63.1358 46.9315C62.9131 46.7088 62.7886 46.4073 62.7886 46.0931C62.7886 45.778 62.9131 45.4774 63.1358 45.2546L64.4342 43.9563C63.8828 43.0272 63.4653 42.0185 63.1977 40.9734H61.3624C60.7077 40.9734 60.1767 40.4423 60.1767 39.7876V36.5346C60.1767 35.8799 60.7077 35.3489 61.3624 35.3489H63.1977C63.4653 34.3038 63.8829 33.2951 64.4342 32.3659L63.1358 31.0676C62.9131 30.8449 62.7886 30.5433 62.7886 30.2291C62.7886 29.9141 62.9131 29.6134 63.1358 29.3907L65.436 27.0905C65.8984 26.6272 66.6497 26.6272 67.1129 27.0905L68.4113 28.3888C69.3412 27.8375 70.3491 27.42 71.3942 27.1523V25.3171C71.3942 24.6624 71.9252 24.1313 72.5799 24.1313H75.833C76.4877 24.1313 77.0187 24.6624 77.0187 25.3171V27.1523C78.0638 27.42 79.0725 27.8375 80.0016 28.3888L81.3 27.0905C81.7624 26.6272 82.5136 26.6272 82.9769 27.0905L85.2771 29.3907C85.4998 29.6134 85.6243 29.9149 85.6243 30.2291C85.6243 30.5442 85.4998 30.8448 85.2771 31.0676L83.9787 32.3659C84.5292 33.295 84.9476 34.3037 85.2152 35.3489H87.0505C87.7052 35.3489 88.2362 35.8799 88.2362 36.5346V39.7876C88.2362 40.4423 87.7052 40.9734 87.0505 40.9734H85.2152C84.9476 42.0185 84.5301 43.0272 83.9787 43.9563L85.2771 45.2546C85.4998 45.4774 85.6243 45.7789 85.6243 46.0931C85.6243 46.4081 85.4998 46.7088 85.2771 46.9315L82.9769 49.2309C82.5145 49.6941 81.7632 49.6941 81.3 49.2309L80.0016 47.9325C79.0717 48.483 78.0639 48.9014 77.0187 49.169V51.0043C77.0187 51.6598 76.4877 52.19 75.833 52.19ZM73.7656 49.8185H74.6473V48.2051C74.6473 47.6233 75.0699 47.127 75.645 47.0347C77.0153 46.8145 78.3365 46.2673 79.4646 45.4517C79.9372 45.1113 80.5859 45.163 80.9975 45.5746L82.1392 46.7154L82.7625 46.092L81.6217 44.9512C81.2101 44.5396 81.1584 43.89 81.4989 43.4183C82.3145 42.2902 82.8616 40.9689 83.0818 39.5987C83.1741 39.0236 83.6704 38.601 84.2523 38.601H85.8656V37.7193H84.2523C83.6704 37.7193 83.1741 37.2967 83.0818 36.7216C82.8616 35.3513 82.3145 34.0301 81.4989 32.902C81.1576 32.4303 81.2101 31.7807 81.6217 31.3691L82.7625 30.2283L82.1392 29.605L80.9975 30.7458C80.5859 31.1574 79.9372 31.209 79.4646 30.8686C78.3356 30.053 77.0152 29.5059 75.645 29.2857C75.0699 29.1933 74.6473 28.6971 74.6473 28.1152V26.5018H73.7656V28.1152C73.7656 28.6979 73.343 29.1934 72.7679 29.2857C71.3976 29.5059 70.0764 30.053 68.9483 30.8686C68.4766 31.2099 67.827 31.1574 67.4154 30.7458L66.2737 29.605L65.6504 30.2283L66.7912 31.3691C67.2028 31.7807 67.2545 32.4303 66.914 32.902C66.0984 34.0301 65.5513 35.3514 65.3311 36.7216C65.2388 37.2967 64.7425 37.7193 64.1607 37.7193H62.5473V38.601H64.1607C64.7425 38.601 65.2388 39.0236 65.3311 39.5987C65.5513 40.969 66.0984 42.2902 66.914 43.4183C67.2553 43.89 67.2028 44.5396 66.7912 44.9512L65.6504 46.092L66.2737 46.7154L67.4154 45.5746C67.8261 45.163 68.4757 45.1104 68.9483 45.4517C70.0764 46.2673 71.3977 46.8145 72.7679 47.0347C73.343 47.127 73.7656 47.6233 73.7656 48.2051V49.8185ZM74.2069 45.1197C70.3687 45.1197 67.2461 41.9972 67.2461 38.1589C67.2461 34.3207 70.3687 31.1981 74.2069 31.1981C78.0452 31.1981 81.1677 34.3207 81.1677 38.1589C81.1677 41.9972 78.0443 45.1197 74.2069 45.1197ZM74.2069 33.5694C71.6763 33.5694 69.6174 35.6283 69.6174 38.1589C69.6174 40.6895 71.6763 42.7484 74.2069 42.7484C76.7375 42.7484 78.7964 40.6895 78.7964 38.1589C78.7964 35.6283 76.7375 33.5694 74.2069 33.5694ZM24.0849 24.8323C24.3008 24.9992 24.5557 25.0796 24.8081 25.0796L24.8082 25.0792C25.163 25.0792 25.5145 24.92 25.7482 24.616C26.1488 24.0968 26.0523 23.3524 25.534 22.9526L20.234 18.8646L25.534 14.7766C26.0523 14.376 26.148 13.6315 25.7482 13.1132C25.3476 12.5949 24.6032 12.4992 24.0849 12.8989L17.5677 17.9264C17.2763 18.1517 17.1061 18.4981 17.1061 18.8656C17.1061 19.2332 17.2763 19.5804 17.5677 19.8049L24.0849 24.8323ZM37.4632 25.0796C37.1084 25.0796 36.7569 24.9212 36.524 24.618C36.1242 24.0997 36.2199 23.3553 36.7383 22.9547L42.0383 18.8666L36.7383 14.7786C36.2199 14.3789 36.1234 13.6344 36.524 13.1152C36.9237 12.5961 37.6682 12.5004 38.1874 12.901L44.7046 17.9284C44.9959 18.1529 45.1661 18.5001 45.1661 18.8677C45.1661 19.2352 44.9959 19.5816 44.7046 19.8069L38.1874 24.8344C37.9705 24.9995 37.7156 25.08 37.4632 25.08L37.4632 25.0796ZM48.2282 35.7902H14.0432C13.3886 35.7902 12.8575 35.2592 12.8575 34.6045C12.8575 33.9498 13.3885 33.4188 14.0432 33.4188H48.2282C48.8829 33.4188 49.4139 33.9498 49.4139 34.6045C49.4139 35.2592 48.8838 35.7902 48.2282 35.7902ZM14.0432 43.9901H48.2282C48.8838 43.9901 49.4139 43.4591 49.4139 42.8044C49.4139 42.1497 48.8829 41.6187 48.2282 41.6187H14.0432C13.3885 41.6187 12.8575 42.1497 12.8575 42.8044C12.8575 43.4591 13.3886 43.9901 14.0432 43.9901ZM48.2282 52.19H14.0432C13.3886 52.19 12.8575 51.659 12.8575 51.0043C12.8575 50.3496 13.3885 49.8186 14.0432 49.8186H48.2282C48.8829 49.8186 49.4139 50.3496 49.4139 51.0043C49.4139 51.6598 48.8838 52.19 48.2282 52.19Z"
          fill="url(#paint0_linear_0_1)"/>
    <defs>
        <linearGradient id="paint0_linear_0_1" x1="3.71429" y1="2.46432" x2="80.3214" y2="95.1429"
                        gradientUnits="userSpaceOnUse">
            <stop stop-color="#52ADD7"/>
            <stop offset="1" stop-color="#52ADD7"/>
        </linearGradient>
    </defs>
</svg>
