<svg width="97" height="92" viewBox="0 0 97 92" fill="none" xmlns="http://www.w3.org/2000/svg">
    <path d="M28.2727 85.5455H35.7727L35.0909 83.2727L36.9091 75.5455H49.6363L52.8182 83.7273L50.7727 85.5455H58.2727V90.0909H28.2727V85.5455Z"
          fill="#6BCFFF" fill-opacity="0.13"/>
    <path fill-rule="evenodd" clip-rule="evenodd"
          d="M85.5455 24.2554C84.098 25.623 82.1864 26.4545 80.0909 26.4545C75.5722 26.4545 71.9091 22.5879 71.9091 17.8182C71.9091 16.3381 72.2618 14.9449 72.8834 13.7273H2.90912C2.35683 13.7273 1.90912 14.175 1.90912 14.7273V74.5455C1.90912 75.0978 2.35683 75.5455 2.90912 75.5455H84.5455C85.0978 75.5455 85.5455 75.0978 85.5455 74.5455V24.2554Z"
          fill="#6BCFFF" fill-opacity="0.13"/>
    <path fill-rule="evenodd" clip-rule="evenodd"
          d="M77.3977 1.57923C77.3964 1.26064 77.6537 1.0013 77.9723 1.00001L82.7254 1C82.8792 0.999489 83.0271 1.06027 83.1358 1.16895C83.2445 1.27764 83.3052 1.42547 83.3047 1.57922V4.54249C84.6828 4.86595 85.9905 5.41166 87.1936 6.15701L89.2931 4.05678C89.4012 3.9481 89.5486 3.8868 89.7021 3.8868C89.8556 3.8868 90.0027 3.9481 90.1111 4.05678L93.467 7.41696C93.6906 7.6418 93.6906 8.00545 93.467 8.23028L91.3676 10.3305C92.114 11.5348 92.6578 12.8431 92.9813 14.2225H95.9496C96.2669 14.223 96.5239 14.4798 96.5252 14.7971V19.5498C96.5239 19.8671 96.2669 20.1236 95.9496 20.1244V20.1241H92.986C92.6627 21.5038 92.1177 22.8126 91.3713 24.0171L93.4671 26.1164C93.6907 26.3415 93.6907 26.7049 93.4671 26.93L90.1112 30.2899C90.0027 30.3988 89.8557 30.4599 89.7021 30.4599C89.5486 30.4599 89.4013 30.3988 89.2931 30.2899L87.1893 28.1863C85.9872 28.9306 84.6811 29.4732 83.3049 29.7965V32.7688C83.3054 32.9225 83.2446 33.0704 83.1359 33.179C83.0272 33.2877 82.8793 33.3485 82.7256 33.348H77.9723C77.6537 33.3467 77.3964 33.0873 77.3977 32.7688V29.8042C76.0199 29.481 74.7071 28.9407 73.5042 28.1953L71.4094 30.29C71.3012 30.3989 71.1539 30.4599 71.0003 30.4599C70.8468 30.4599 70.6998 30.3989 70.5913 30.29L67.231 26.93C67.0072 26.7049 67.0072 26.3415 67.231 26.1164L69.3349 24.0128C68.5894 22.8096 68.0444 21.5025 67.7212 20.1244H64.7519C64.4351 20.1231 64.1785 19.8666 64.1772 19.5499V14.7971C64.1785 14.4804 64.4351 14.2239 64.7519 14.2226H67.7122C68.0357 12.8427 68.5838 11.5354 69.3303 10.3306L67.231 8.23036C67.0072 8.00552 67.0072 7.64187 67.231 7.41703L70.5913 4.05685C70.6998 3.94817 70.8468 3.88688 71.0003 3.88688C71.1539 3.88688 71.3012 3.94817 71.4094 4.05685L73.5089 6.15709C74.7107 5.41299 76.0218 4.87475 77.3977 4.55153V1.57923ZM80.3513 24.5396C84.5031 24.5396 87.8688 21.2419 87.8688 17.174C87.8688 13.1061 84.5031 9.80836 80.3513 9.80836C76.1995 9.80836 72.8338 13.1061 72.8338 17.174C72.8338 21.2419 76.1995 24.5396 80.3513 24.5396Z"
          fill="#27373F"/>
    <mask id="path-4-outside-1_4_401" maskUnits="userSpaceOnUse" x="0" y="0" width="97" height="92" fill="black">
        <rect fill="white" width="97" height="92"/>
        <path fill-rule="evenodd" clip-rule="evenodd"
              d="M77.3977 1.57923C77.3964 1.26064 77.6537 1.0013 77.9724 1.00001L82.7255 1C82.8792 0.999489 83.0271 1.06027 83.1358 1.16895C83.2445 1.27764 83.3053 1.42547 83.3047 1.57922V4.54249C84.6828 4.86595 85.9905 5.41166 87.1936 6.15701L89.2931 4.05678C89.4012 3.9481 89.5486 3.8868 89.7021 3.8868C89.8556 3.8868 90.0027 3.9481 90.1111 4.05678L93.467 7.41696C93.6906 7.6418 93.6906 8.00545 93.467 8.23028L91.3676 10.3305C92.1141 11.5348 92.6578 12.8431 92.9813 14.2225H95.9496C96.2669 14.223 96.5239 14.4798 96.5252 14.7971V19.5498C96.5239 19.8671 96.2669 20.1236 95.9496 20.1244V20.1241H92.986C92.6627 21.5038 92.1177 22.8126 91.3713 24.0171L93.4671 26.1164C93.6907 26.3415 93.6907 26.7049 93.4671 26.93L90.1112 30.2899C90.0027 30.3988 89.8557 30.4599 89.7022 30.4599C89.5486 30.4599 89.4013 30.3988 89.2931 30.2899L87.1893 28.1863C86.8181 28.4161 86.437 28.6267 86.047 28.8176V72.3826C86.047 74.6067 84.2376 76.4161 82.0135 76.4161H82.0126H51.0653C51.0909 78.0488 51.4469 82.5079 54.4631 84.6215H58.5808C59.1894 84.6215 59.6848 85.1169 59.6848 85.7255V89.896C59.6848 90.5047 59.1894 91 58.5808 91H28.4653C27.8566 91 27.3613 90.5047 27.3613 89.896V85.7255C27.3613 85.1169 27.8566 84.6215 28.4653 84.6215H32.5837C35.6081 82.5031 35.96 78.0478 35.9833 76.4161H5.03347C2.80936 76.4161 1 74.6067 1 72.3826V16.1199C1 13.8958 2.80936 12.0864 5.03347 12.0864H68.4153C68.675 11.4807 68.9809 10.8944 69.3303 10.3306L67.231 8.23036C67.0072 8.00552 67.0072 7.64187 67.231 7.41703L70.5913 4.05685C70.6998 3.94817 70.8468 3.88688 71.0004 3.88688C71.1539 3.88688 71.3012 3.94817 71.4094 4.05685L73.5089 6.15709C74.7107 5.41299 76.0218 4.87475 77.3977 4.55153V1.57923ZM67.9356 13.3952H5.03347C3.53081 13.3952 2.3088 14.6173 2.3088 16.1199V63.1143H84.7387L84.7383 29.3716C84.2703 29.5402 83.792 29.6821 83.3049 29.7965V32.7688C83.3054 32.9225 83.2446 33.0704 83.1359 33.179C83.0272 33.2877 82.8794 33.3485 82.7256 33.348H77.9724C77.6537 33.3467 77.3964 33.0873 77.3977 32.7688V29.8042C76.0199 29.481 74.7071 28.9407 73.5042 28.1953L71.4094 30.29C71.3012 30.3989 71.1539 30.4599 71.0004 30.4599C70.8468 30.4599 70.6998 30.3989 70.5913 30.29L67.231 26.93C67.0072 26.7049 67.0072 26.3415 67.231 26.1164L69.3349 24.0128C68.5894 22.8096 68.0444 21.5025 67.7212 20.1244H64.7519C64.4351 20.1231 64.1785 19.8666 64.1773 19.5499V14.7971C64.1785 14.4804 64.4351 14.2239 64.7519 14.2226H67.7122C67.7776 13.9437 67.8521 13.6679 67.9356 13.3952ZM84.7387 64.423H2.3088V72.3826C2.3088 73.8847 3.53087 75.1073 5.03347 75.1073H82.0141C83.5168 75.1073 84.7388 73.8846 84.7388 72.3826L84.7387 64.423ZM37.2945 76.4161C37.2798 78.0139 36.9825 81.9819 34.5559 84.6215H52.4918C50.0652 81.982 49.7677 78.014 49.7531 76.4161H37.2945ZM82.1509 2.1538H78.5516L78.5514 4.92208C78.5509 5.19868 78.3544 5.43588 78.0826 5.4879C76.5094 5.79283 75.0163 6.40988 73.688 7.30641C73.4593 7.46248 73.1517 7.43415 72.9555 7.23868L71.0003 5.27927L68.458 7.82125L70.4086 9.77624C70.6023 9.972 70.6306 10.2772 70.4763 10.5054C69.5787 11.8345 68.9582 13.3339 68.653 14.9086C68.5992 15.1785 68.3625 15.3727 68.0874 15.3729H65.3275V18.9705H68.0954C68.3723 18.9705 68.6101 19.1673 68.6621 19.4393C68.9673 21.0124 69.5844 22.5097 70.4808 23.8381C70.6348 24.0663 70.6062 24.3718 70.412 24.5672V24.567L68.4535 26.5207L71.0003 29.0673L72.9509 27.1136C73.1469 26.9178 73.4544 26.889 73.6834 27.0448C75.013 27.9423 76.508 28.5627 78.0828 28.8679C78.3548 28.92 78.5516 29.1577 78.5516 29.4348V32.1941H82.1509V29.4258C82.1504 29.1503 82.3448 28.9128 82.615 28.859C84.1883 28.554 85.6858 27.937 87.0144 27.0405C87.2426 26.887 87.547 26.9158 87.7425 27.1092V27.109L89.7021 29.064L92.2444 26.521L90.2938 24.5706C90.0968 24.3754 90.0666 24.0679 90.2217 23.8382H90.2214C91.119 22.5088 91.7395 21.014 92.0448 19.4393C92.0968 19.1676 92.334 18.9711 92.6106 18.9706H95.3703V15.373H92.606C92.3309 15.3728 92.0942 15.1786 92.0404 14.9087C91.7352 13.3356 91.1137 11.8372 90.2171 10.5088C90.0646 10.2799 90.0947 9.97518 90.2892 9.78073L92.2444 7.82133L89.7021 5.28403L87.7469 7.23441C87.5514 7.4273 87.2467 7.45563 87.019 7.30188H87.0188C85.6895 6.40436 84.1899 5.7852 82.6151 5.48001C82.3449 5.42617 82.1504 5.18872 82.1509 4.91315V2.1538ZM72.2827 17.1736C72.2827 12.7251 75.9002 9.10822 80.349 9.10822C84.7981 9.10822 88.4198 12.7253 88.4198 17.1736C88.4198 21.6223 84.7979 25.2402 80.349 25.2402C75.9 25.2402 72.2827 21.622 72.2827 17.1736ZM87.2659 17.1736C87.2659 13.3486 84.1742 10.262 80.349 10.262L80.3489 10.2626C76.7196 10.2626 73.7589 13.0431 73.465 16.5948H79.7655L78.3602 15.2754C78.1876 15.117 78.1278 14.8698 78.2092 14.6501C78.2906 14.4304 78.4967 14.2816 78.7311 14.2738C78.8861 14.2695 79.0366 14.3279 79.1481 14.4361L81.5719 16.7097C81.5739 16.7112 81.5757 16.7128 81.5775 16.7143C81.723 16.8266 81.8062 17.0015 81.8019 17.1853C81.8006 17.243 81.7908 17.3005 81.7725 17.3553C81.7601 17.3919 81.7444 17.4269 81.7251 17.4601C81.7182 17.4728 81.7107 17.4851 81.7027 17.4972C81.6978 17.5047 81.6929 17.5116 81.688 17.5189C81.6811 17.5278 81.6739 17.5368 81.6668 17.5457L81.6666 17.5459L81.6661 17.5465L81.6639 17.5489L81.6587 17.5549C81.6527 17.5613 81.6468 17.5678 81.6406 17.574C81.6334 17.5812 81.6257 17.5884 81.618 17.5953C81.6115 17.6015 81.6048 17.6075 81.5979 17.6134L79.1481 19.9119C79.0397 20.0312 78.8867 20.0997 78.7257 20.1012C78.5647 20.1025 78.4104 20.0366 78.3002 19.9194C78.19 19.802 78.1336 19.6438 78.1451 19.4834C78.1565 19.3227 78.2345 19.1741 78.3602 19.0736L79.7712 17.7485L73.465 17.7483C73.7562 21.3026 76.7178 24.0851 80.349 24.0851C84.1743 24.0851 87.2659 20.9985 87.2659 17.1736ZM15.1995 70.7741H8.98478C8.62291 70.7741 8.33044 70.4811 8.33044 70.1198C8.33044 69.7585 8.62291 69.4655 8.98478 69.4655H15.1995C15.5614 69.4655 15.8539 69.7585 15.8539 70.1198C15.8533 70.4811 15.5608 70.7741 15.1995 70.7741ZM58.3758 89.6913H28.6688V85.9295H58.3758V89.6913ZM55.4718 56.0809H31.574C30.1159 56.0809 28.8718 55.089 28.5479 53.6681L25.2835 39.3997H24.1978C23.4764 39.3997 22.8891 38.8129 22.8891 38.091V34.6015C22.8891 33.8801 23.4764 33.2928 24.1978 33.2928H30.9546L36.4872 22.038V22.0374C36.9755 21.0444 37.9656 20.4279 39.072 20.4279C40.074 20.4279 40.9875 20.9358 41.5168 21.7853C42.0466 22.6354 42.0988 23.6795 41.6568 24.5783L37.3734 33.2928H49.6731L45.3896 24.5782C44.9476 23.6794 44.9998 22.6353 45.5296 21.7851C46.0594 20.935 46.9729 20.4278 47.975 20.4278C49.0642 20.4278 50.0787 21.0596 50.5598 22.0373V22.0379L56.0919 33.2928H62.8498C63.5712 33.2928 64.1585 33.8795 64.1585 34.6015V38.091C64.1585 38.8129 63.5712 39.3997 62.8498 39.3997H61.763L58.4979 53.6688C58.1734 55.089 56.9288 56.0809 55.4718 56.0809ZM55.7064 34.6016L62.8498 34.6015V38.091H61.272L61.2563 38.0905L61.2417 38.0903H25.8047C25.7946 38.0903 25.7845 38.0905 25.7745 38.091H24.1978V34.6021L31.3502 34.602L31.3617 34.6021H36.3229L36.323 34.6022C36.3296 34.6022 36.3363 34.6021 36.3429 34.6019L50.7011 34.6017C50.7087 34.602 50.7163 34.6021 50.724 34.6021H55.6846L55.6847 34.602C55.692 34.602 55.6992 34.6019 55.7064 34.6016ZM54.6343 33.2928L49.3857 22.6147V22.6152C49.1229 22.0813 48.57 21.7367 47.975 21.7367C47.428 21.7367 46.9297 22.0137 46.6408 22.4776C46.3513 22.9415 46.3234 23.5116 46.5643 24.0022L51.1313 33.2928H54.6343ZM32.412 33.2928H35.9156L40.4826 24.0015C40.7234 23.5109 40.6956 22.9408 40.4061 22.4769C40.1172 22.013 39.6188 21.736 39.0719 21.736C38.468 21.736 37.9275 22.0729 37.6612 22.6145V22.614L32.412 33.2928ZM60.4202 39.3996L57.2226 53.3775C57.034 54.1991 56.3138 54.7733 55.4714 54.7733H31.5749C30.7314 54.7733 30.0118 54.1997 29.8237 53.3775L26.6262 39.3996H60.4202ZM50.4072 51.9409C50.0454 51.9409 49.7529 51.6479 49.7529 51.2866V42.8869C49.7529 42.5256 50.0454 42.2326 50.4072 42.2326C50.7691 42.2326 51.0616 42.5256 51.0616 42.8869V51.2866C51.0616 51.6479 50.7685 51.9409 50.4072 51.9409ZM42.8686 51.2866C42.8686 51.6479 43.1611 51.9409 43.523 51.9409C43.8849 51.9409 44.1773 51.6479 44.1773 51.2866V42.8869C44.1773 42.5256 43.8849 42.2326 43.523 42.2326C43.1611 42.2326 42.8686 42.5256 42.8686 42.8869V51.2866ZM36.6388 51.9409C36.2769 51.9409 35.9845 51.6479 35.9845 51.2866V42.8869C35.9845 42.5256 36.2769 42.2326 36.6388 42.2326C37.0007 42.2326 37.2931 42.5256 37.2931 42.8869V51.2866C37.2931 51.6479 37.0007 51.9409 36.6388 51.9409Z"/>
    </mask>
    <path fill-rule="evenodd" clip-rule="evenodd"
          d="M77.3977 1.57923C77.3964 1.26064 77.6537 1.0013 77.9724 1.00001L82.7255 1C82.8792 0.999489 83.0271 1.06027 83.1358 1.16895C83.2445 1.27764 83.3053 1.42547 83.3047 1.57922V4.54249C84.6828 4.86595 85.9905 5.41166 87.1936 6.15701L89.2931 4.05678C89.4012 3.9481 89.5486 3.8868 89.7021 3.8868C89.8556 3.8868 90.0027 3.9481 90.1111 4.05678L93.467 7.41696C93.6906 7.6418 93.6906 8.00545 93.467 8.23028L91.3676 10.3305C92.1141 11.5348 92.6578 12.8431 92.9813 14.2225H95.9496C96.2669 14.223 96.5239 14.4798 96.5252 14.7971V19.5498C96.5239 19.8671 96.2669 20.1236 95.9496 20.1244V20.1241H92.986C92.6627 21.5038 92.1177 22.8126 91.3713 24.0171L93.4671 26.1164C93.6907 26.3415 93.6907 26.7049 93.4671 26.93L90.1112 30.2899C90.0027 30.3988 89.8557 30.4599 89.7022 30.4599C89.5486 30.4599 89.4013 30.3988 89.2931 30.2899L87.1893 28.1863C86.8181 28.4161 86.437 28.6267 86.047 28.8176V72.3826C86.047 74.6067 84.2376 76.4161 82.0135 76.4161H82.0126H51.0653C51.0909 78.0488 51.4469 82.5079 54.4631 84.6215H58.5808C59.1894 84.6215 59.6848 85.1169 59.6848 85.7255V89.896C59.6848 90.5047 59.1894 91 58.5808 91H28.4653C27.8566 91 27.3613 90.5047 27.3613 89.896V85.7255C27.3613 85.1169 27.8566 84.6215 28.4653 84.6215H32.5837C35.6081 82.5031 35.96 78.0478 35.9833 76.4161H5.03347C2.80936 76.4161 1 74.6067 1 72.3826V16.1199C1 13.8958 2.80936 12.0864 5.03347 12.0864H68.4153C68.675 11.4807 68.9809 10.8944 69.3303 10.3306L67.231 8.23036C67.0072 8.00552 67.0072 7.64187 67.231 7.41703L70.5913 4.05685C70.6998 3.94817 70.8468 3.88688 71.0004 3.88688C71.1539 3.88688 71.3012 3.94817 71.4094 4.05685L73.5089 6.15709C74.7107 5.41299 76.0218 4.87475 77.3977 4.55153V1.57923ZM67.9356 13.3952H5.03347C3.53081 13.3952 2.3088 14.6173 2.3088 16.1199V63.1143H84.7387L84.7383 29.3716C84.2703 29.5402 83.792 29.6821 83.3049 29.7965V32.7688C83.3054 32.9225 83.2446 33.0704 83.1359 33.179C83.0272 33.2877 82.8794 33.3485 82.7256 33.348H77.9724C77.6537 33.3467 77.3964 33.0873 77.3977 32.7688V29.8042C76.0199 29.481 74.7071 28.9407 73.5042 28.1953L71.4094 30.29C71.3012 30.3989 71.1539 30.4599 71.0004 30.4599C70.8468 30.4599 70.6998 30.3989 70.5913 30.29L67.231 26.93C67.0072 26.7049 67.0072 26.3415 67.231 26.1164L69.3349 24.0128C68.5894 22.8096 68.0444 21.5025 67.7212 20.1244H64.7519C64.4351 20.1231 64.1785 19.8666 64.1773 19.5499V14.7971C64.1785 14.4804 64.4351 14.2239 64.7519 14.2226H67.7122C67.7776 13.9437 67.8521 13.6679 67.9356 13.3952ZM84.7387 64.423H2.3088V72.3826C2.3088 73.8847 3.53087 75.1073 5.03347 75.1073H82.0141C83.5168 75.1073 84.7388 73.8846 84.7388 72.3826L84.7387 64.423ZM37.2945 76.4161C37.2798 78.0139 36.9825 81.9819 34.5559 84.6215H52.4918C50.0652 81.982 49.7677 78.014 49.7531 76.4161H37.2945ZM82.1509 2.1538H78.5516L78.5514 4.92208C78.5509 5.19868 78.3544 5.43588 78.0826 5.4879C76.5094 5.79283 75.0163 6.40988 73.688 7.30641C73.4593 7.46248 73.1517 7.43415 72.9555 7.23868L71.0003 5.27927L68.458 7.82125L70.4086 9.77624C70.6023 9.972 70.6306 10.2772 70.4763 10.5054C69.5787 11.8345 68.9582 13.3339 68.653 14.9086C68.5992 15.1785 68.3625 15.3727 68.0874 15.3729H65.3275V18.9705H68.0954C68.3723 18.9705 68.6101 19.1673 68.6621 19.4393C68.9673 21.0124 69.5844 22.5097 70.4808 23.8381C70.6348 24.0663 70.6062 24.3718 70.412 24.5672V24.567L68.4535 26.5207L71.0003 29.0673L72.9509 27.1136C73.1469 26.9178 73.4544 26.889 73.6834 27.0448C75.013 27.9423 76.508 28.5627 78.0828 28.8679C78.3548 28.92 78.5516 29.1577 78.5516 29.4348V32.1941H82.1509V29.4258C82.1504 29.1503 82.3448 28.9128 82.615 28.859C84.1883 28.554 85.6858 27.937 87.0144 27.0405C87.2426 26.887 87.547 26.9158 87.7425 27.1092V27.109L89.7021 29.064L92.2444 26.521L90.2938 24.5706C90.0968 24.3754 90.0666 24.0679 90.2217 23.8382H90.2214C91.119 22.5088 91.7395 21.014 92.0448 19.4393C92.0968 19.1676 92.334 18.9711 92.6106 18.9706H95.3703V15.373H92.606C92.3309 15.3728 92.0942 15.1786 92.0404 14.9087C91.7352 13.3356 91.1137 11.8372 90.2171 10.5088C90.0646 10.2799 90.0947 9.97518 90.2892 9.78073L92.2444 7.82133L89.7021 5.28403L87.7469 7.23441C87.5514 7.4273 87.2467 7.45563 87.019 7.30188H87.0188C85.6895 6.40436 84.1899 5.7852 82.6151 5.48001C82.3449 5.42617 82.1504 5.18872 82.1509 4.91315V2.1538ZM72.2827 17.1736C72.2827 12.7251 75.9002 9.10822 80.349 9.10822C84.7981 9.10822 88.4198 12.7253 88.4198 17.1736C88.4198 21.6223 84.7979 25.2402 80.349 25.2402C75.9 25.2402 72.2827 21.622 72.2827 17.1736ZM87.2659 17.1736C87.2659 13.3486 84.1742 10.262 80.349 10.262L80.3489 10.2626C76.7196 10.2626 73.7589 13.0431 73.465 16.5948H79.7655L78.3602 15.2754C78.1876 15.117 78.1278 14.8698 78.2092 14.6501C78.2906 14.4304 78.4967 14.2816 78.7311 14.2738C78.8861 14.2695 79.0366 14.3279 79.1481 14.4361L81.5719 16.7097C81.5739 16.7112 81.5757 16.7128 81.5775 16.7143C81.723 16.8266 81.8062 17.0015 81.8019 17.1853C81.8006 17.243 81.7908 17.3005 81.7725 17.3553C81.7601 17.3919 81.7444 17.4269 81.7251 17.4601C81.7182 17.4728 81.7107 17.4851 81.7027 17.4972C81.6978 17.5047 81.6929 17.5116 81.688 17.5189C81.6811 17.5278 81.6739 17.5368 81.6668 17.5457L81.6666 17.5459L81.6661 17.5465L81.6639 17.5489L81.6587 17.5549C81.6527 17.5613 81.6468 17.5678 81.6406 17.574C81.6334 17.5812 81.6257 17.5884 81.618 17.5953C81.6115 17.6015 81.6048 17.6075 81.5979 17.6134L79.1481 19.9119C79.0397 20.0312 78.8867 20.0997 78.7257 20.1012C78.5647 20.1025 78.4104 20.0366 78.3002 19.9194C78.19 19.802 78.1336 19.6438 78.1451 19.4834C78.1565 19.3227 78.2345 19.1741 78.3602 19.0736L79.7712 17.7485L73.465 17.7483C73.7562 21.3026 76.7178 24.0851 80.349 24.0851C84.1743 24.0851 87.2659 20.9985 87.2659 17.1736ZM15.1995 70.7741H8.98478C8.62291 70.7741 8.33044 70.4811 8.33044 70.1198C8.33044 69.7585 8.62291 69.4655 8.98478 69.4655H15.1995C15.5614 69.4655 15.8539 69.7585 15.8539 70.1198C15.8533 70.4811 15.5608 70.7741 15.1995 70.7741ZM58.3758 89.6913H28.6688V85.9295H58.3758V89.6913ZM55.4718 56.0809H31.574C30.1159 56.0809 28.8718 55.089 28.5479 53.6681L25.2835 39.3997H24.1978C23.4764 39.3997 22.8891 38.8129 22.8891 38.091V34.6015C22.8891 33.8801 23.4764 33.2928 24.1978 33.2928H30.9546L36.4872 22.038V22.0374C36.9755 21.0444 37.9656 20.4279 39.072 20.4279C40.074 20.4279 40.9875 20.9358 41.5168 21.7853C42.0466 22.6354 42.0988 23.6795 41.6568 24.5783L37.3734 33.2928H49.6731L45.3896 24.5782C44.9476 23.6794 44.9998 22.6353 45.5296 21.7851C46.0594 20.935 46.9729 20.4278 47.975 20.4278C49.0642 20.4278 50.0787 21.0596 50.5598 22.0373V22.0379L56.0919 33.2928H62.8498C63.5712 33.2928 64.1585 33.8795 64.1585 34.6015V38.091C64.1585 38.8129 63.5712 39.3997 62.8498 39.3997H61.763L58.4979 53.6688C58.1734 55.089 56.9288 56.0809 55.4718 56.0809ZM55.7064 34.6016L62.8498 34.6015V38.091H61.272L61.2563 38.0905L61.2417 38.0903H25.8047C25.7946 38.0903 25.7845 38.0905 25.7745 38.091H24.1978V34.6021L31.3502 34.602L31.3617 34.6021H36.3229L36.323 34.6022C36.3296 34.6022 36.3363 34.6021 36.3429 34.6019L50.7011 34.6017C50.7087 34.602 50.7163 34.6021 50.724 34.6021H55.6846L55.6847 34.602C55.692 34.602 55.6992 34.6019 55.7064 34.6016ZM54.6343 33.2928L49.3857 22.6147V22.6152C49.1229 22.0813 48.57 21.7367 47.975 21.7367C47.428 21.7367 46.9297 22.0137 46.6408 22.4776C46.3513 22.9415 46.3234 23.5116 46.5643 24.0022L51.1313 33.2928H54.6343ZM32.412 33.2928H35.9156L40.4826 24.0015C40.7234 23.5109 40.6956 22.9408 40.4061 22.4769C40.1172 22.013 39.6188 21.736 39.0719 21.736C38.468 21.736 37.9275 22.0729 37.6612 22.6145V22.614L32.412 33.2928ZM60.4202 39.3996L57.2226 53.3775C57.034 54.1991 56.3138 54.7733 55.4714 54.7733H31.5749C30.7314 54.7733 30.0118 54.1997 29.8237 53.3775L26.6262 39.3996H60.4202ZM50.4072 51.9409C50.0454 51.9409 49.7529 51.6479 49.7529 51.2866V42.8869C49.7529 42.5256 50.0454 42.2326 50.4072 42.2326C50.7691 42.2326 51.0616 42.5256 51.0616 42.8869V51.2866C51.0616 51.6479 50.7685 51.9409 50.4072 51.9409ZM42.8686 51.2866C42.8686 51.6479 43.1611 51.9409 43.523 51.9409C43.8849 51.9409 44.1773 51.6479 44.1773 51.2866V42.8869C44.1773 42.5256 43.8849 42.2326 43.523 42.2326C43.1611 42.2326 42.8686 42.5256 42.8686 42.8869V51.2866ZM36.6388 51.9409C36.2769 51.9409 35.9845 51.6479 35.9845 51.2866V42.8869C35.9845 42.5256 36.2769 42.2326 36.6388 42.2326C37.0007 42.2326 37.2931 42.5256 37.2931 42.8869V51.2866C37.2931 51.6479 37.0007 51.9409 36.6388 51.9409Z"
          fill="url(#paint0_linear_4_401)"/>
    <path d="M77.9724 1.00001V0.600006L77.9707 0.600013L77.9724 1.00001ZM77.3977 1.57923H77.7977L77.7977 1.57761L77.3977 1.57923ZM82.7255 1V1.40001L82.7268 1.4L82.7255 1ZM83.1358 1.16895L83.4186 0.886108L83.4186 0.886089L83.1358 1.16895ZM83.3047 1.57922L82.9047 1.57787V1.57922H83.3047ZM83.3047 4.54249H82.9047V4.85948L83.2133 4.93191L83.3047 4.54249ZM87.1936 6.15701L86.9829 6.49705L87.2524 6.66398L87.4765 6.43981L87.1936 6.15701ZM89.2931 4.05678L89.576 4.33957L89.5766 4.33897L89.2931 4.05678ZM90.1111 4.05678L89.8279 4.3393L89.8281 4.33944L90.1111 4.05678ZM93.467 7.41696L93.7507 7.13492L93.7501 7.13429L93.467 7.41696ZM93.467 8.23028L93.7499 8.51308L93.7507 8.51232L93.467 8.23028ZM91.3676 10.3305L91.0847 10.0477L90.8606 10.2719L91.0276 10.5413L91.3676 10.3305ZM92.9813 14.2225L92.5918 14.3138L92.6642 14.6225H92.9813V14.2225ZM95.9496 14.2225L95.9502 13.8225H95.9496V14.2225ZM96.5252 14.7971H96.9252L96.9252 14.7955L96.5252 14.7971ZM96.5252 19.5498L96.9252 19.5514V19.5498H96.5252ZM95.9496 20.1244H95.5496V20.5253L95.9505 20.5244L95.9496 20.1244ZM95.9496 20.1241H96.3496V19.7241H95.9496V20.1241ZM92.986 20.1241V19.7241H92.6688L92.5965 20.0329L92.986 20.1241ZM91.3713 24.0171L91.0312 23.8064L90.8644 24.0756L91.0882 24.2997L91.3713 24.0171ZM93.4671 26.1164L93.7509 25.8345L93.7502 25.8338L93.4671 26.1164ZM93.4671 26.93L93.7501 27.2126L93.7509 27.2119L93.4671 26.93ZM90.1112 30.2899L89.8282 30.0072L89.8277 30.0077L90.1112 30.2899ZM89.2931 30.2899L89.577 30.008L89.576 30.007L89.2931 30.2899ZM87.1893 28.1863L87.4721 27.9034L87.2481 27.6794L86.9787 27.8462L87.1893 28.1863ZM86.047 28.8176L85.8711 28.4583L85.647 28.568V28.8176H86.047ZM51.0653 76.4161V76.0161H50.659L50.6654 76.4223L51.0653 76.4161ZM54.4631 84.6215L54.2335 84.9491L54.3369 85.0215H54.4631V84.6215ZM32.5837 84.6215V85.0215H32.7099L32.8132 84.9492L32.5837 84.6215ZM35.9833 76.4161L36.3832 76.4218L36.389 76.0161H35.9833V76.4161ZM68.4153 12.0864V12.4864H68.679L68.7829 12.2441L68.4153 12.0864ZM69.3303 10.3306L69.6703 10.5413L69.8372 10.2719L69.6132 10.0478L69.3303 10.3306ZM67.231 8.23036L66.9476 8.51256L66.9481 8.51313L67.231 8.23036ZM67.231 7.41703L66.9482 7.13418L66.9476 7.13482L67.231 7.41703ZM70.5913 4.05685L70.8742 4.3397L70.8745 4.33938L70.5913 4.05685ZM71.4094 4.05685L71.1259 4.33904L71.1265 4.33964L71.4094 4.05685ZM73.5089 6.15709L73.226 6.43988L73.45 6.66399L73.7194 6.49718L73.5089 6.15709ZM77.3977 4.55153L77.4892 4.94093L77.7977 4.86846V4.55153H77.3977ZM67.9356 13.3952L68.3181 13.5123L68.4764 12.9952H67.9356V13.3952ZM2.3088 63.1143H1.9088V63.5143H2.3088V63.1143ZM84.7387 63.1143V63.5143H85.1387V63.1143L84.7387 63.1143ZM84.7383 29.3716L85.1383 29.3716L85.1383 28.8023L84.6027 28.9953L84.7383 29.3716ZM83.3049 29.7965L83.2134 29.4071L82.9049 29.4795V29.7965H83.3049ZM83.3049 32.7688H82.9049V32.7701L83.3049 32.7688ZM83.1359 33.179L83.4187 33.4619L83.4187 33.4619L83.1359 33.179ZM82.7256 33.348L82.7269 32.948H82.7256V33.348ZM77.9724 33.348L77.9707 33.748H77.9724V33.348ZM77.3977 32.7688L77.7977 32.7704V32.7688H77.3977ZM77.3977 29.8042H77.7977V29.4871L77.4891 29.4147L77.3977 29.8042ZM73.5042 28.1953L73.7149 27.8553L73.4455 27.6884L73.2214 27.9125L73.5042 28.1953ZM71.4094 30.29L71.1265 30.0071L71.1255 30.0081L71.4094 30.29ZM70.5913 30.29L70.8748 30.0078L70.8742 30.0071L70.5913 30.29ZM67.231 26.93L66.9474 27.2121L66.9482 27.2129L67.231 26.93ZM67.231 26.1164L66.9482 25.8336L66.9474 25.8344L67.231 26.1164ZM69.3349 24.0128L69.6177 24.2957L69.8418 24.0716L69.6749 23.8022L69.3349 24.0128ZM67.7212 20.1244L68.1106 20.0331L68.0382 19.7244H67.7212V20.1244ZM64.7519 20.1244L64.7503 20.5244H64.7519V20.1244ZM64.1773 19.5499H63.7773L63.7773 19.5515L64.1773 19.5499ZM64.1773 14.7971L63.7773 14.7955V14.7971H64.1773ZM64.7519 14.2226V13.8226L64.7503 13.8226L64.7519 14.2226ZM67.7122 14.2226V14.6226H68.0293L68.1016 14.3139L67.7122 14.2226ZM84.7387 64.423L85.1387 64.423L85.1387 64.023H84.7387V64.423ZM2.3088 64.423V64.023H1.9088V64.423H2.3088ZM84.7388 72.3826H85.1388V72.3826L84.7388 72.3826ZM37.2945 76.4161V76.0161H36.8981L36.8945 76.4124L37.2945 76.4161ZM34.5559 84.6215L34.2614 84.3508L33.6448 85.0215H34.5559V84.6215ZM52.4918 84.6215V85.0215H53.4028L52.7862 84.3508L52.4918 84.6215ZM49.7531 76.4161L50.153 76.4124L50.1494 76.0161H49.7531V76.4161ZM78.5516 2.1538V1.7538H78.1517L78.1516 2.15377L78.5516 2.1538ZM82.1509 2.1538H82.5509V1.7538H82.1509V2.1538ZM78.5514 4.92208L78.9514 4.92283V4.92211L78.5514 4.92208ZM78.0826 5.4879L78.0074 5.09503L78.0065 5.09521L78.0826 5.4879ZM73.688 7.30641L73.4642 6.97486L73.4625 6.97602L73.688 7.30641ZM72.9555 7.23868L72.6723 7.52122L72.6732 7.5221L72.9555 7.23868ZM71.0003 5.27927L71.2834 4.99674L71.0006 4.7133L70.7174 4.99642L71.0003 5.27927ZM68.458 7.82125L68.1752 7.53839L67.8926 7.82091L68.1749 8.10377L68.458 7.82125ZM70.4086 9.77624L70.6929 9.4949L70.6918 9.49371L70.4086 9.77624ZM70.4763 10.5054L70.145 10.2813L70.1449 10.2815L70.4763 10.5054ZM68.653 14.9086L69.0453 14.9868L69.0457 14.9847L68.653 14.9086ZM68.0874 15.3729V15.7729L68.0878 15.7729L68.0874 15.3729ZM65.3275 15.3729V14.9729H64.9275V15.3729H65.3275ZM65.3275 18.9705H64.9275V19.3705H65.3275V18.9705ZM68.6621 19.4393L68.2692 19.5144L68.2694 19.5154L68.6621 19.4393ZM70.4808 23.8381L70.1492 24.0619L70.1493 24.0619L70.4808 23.8381ZM70.412 24.5672H70.012V25.5374L70.6958 24.8492L70.412 24.5672ZM70.412 24.567H70.812V23.603L70.1295 24.2838L70.412 24.567ZM68.4535 26.5207L68.171 26.2375L67.8874 26.5204L68.1706 26.8036L68.4535 26.5207ZM71.0003 29.0673L70.7175 29.3502L71.0006 29.6332L71.2834 29.3499L71.0003 29.0673ZM72.9509 27.1136L72.6683 26.8305L72.6678 26.831L72.9509 27.1136ZM73.6834 27.0448L73.4584 27.3755L73.4596 27.3763L73.6834 27.0448ZM78.0828 28.8679L78.0067 29.2606L78.0076 29.2608L78.0828 28.8679ZM78.5516 32.1941H78.1516V32.5941H78.5516V32.1941ZM82.1509 32.1941V32.5941H82.5509V32.1941H82.1509ZM82.1509 29.4258H82.5509V29.4251L82.1509 29.4258ZM82.615 28.859L82.5389 28.4663L82.5369 28.4667L82.615 28.859ZM87.0144 27.0405L86.7911 26.7085L86.7906 26.7089L87.0144 27.0405ZM87.7425 27.1092L87.4612 27.3936L88.1425 28.0677V27.1092H87.7425ZM87.7425 27.109L88.025 26.8258L87.3425 26.1449V27.109H87.7425ZM89.7021 29.064L89.4196 29.3471L89.7025 29.6293L89.985 29.3468L89.7021 29.064ZM92.2444 26.521L92.5273 26.8038L92.8101 26.5209L92.5272 26.2381L92.2444 26.521ZM90.2938 24.5706L90.5766 24.2878L90.5753 24.2865L90.2938 24.5706ZM90.2217 23.8382L90.5532 24.062L90.9743 23.4382H90.2217V23.8382ZM90.2214 23.8382L89.8899 23.6144L89.4687 24.2382H90.2214V23.8382ZM92.0448 19.4393L92.4375 19.5155L92.4376 19.5146L92.0448 19.4393ZM92.6106 18.9706V18.5706L92.6099 18.5706L92.6106 18.9706ZM95.3703 18.9706V19.3706H95.7703V18.9706H95.3703ZM95.3703 15.373H95.7703V14.973H95.3703V15.373ZM92.606 15.373L92.6057 15.773H92.606V15.373ZM92.0404 14.9087L91.6477 14.9848L91.6481 14.9869L92.0404 14.9087ZM90.2171 10.5088L89.8841 10.7305L89.8855 10.7326L90.2171 10.5088ZM90.2892 9.78073L90.572 10.0636L90.5723 10.0633L90.2892 9.78073ZM92.2444 7.82133L92.5275 8.10386L92.8101 7.82075L92.527 7.53821L92.2444 7.82133ZM89.7021 5.28403L89.9847 5.00092L89.7022 4.71897L89.4197 5.00084L89.7021 5.28403ZM87.7469 7.23441L88.0279 7.51914L88.0294 7.5176L87.7469 7.23441ZM87.019 7.30188L87.2429 6.97038L87.1414 6.90188H87.019V7.30188ZM87.0188 7.30188L86.795 7.63339L86.8964 7.70188H87.0188V7.30188ZM82.6151 5.48001L82.5369 5.8723L82.539 5.8727L82.6151 5.48001ZM82.1509 4.91315L82.5509 4.91391V4.91315H82.1509ZM80.349 10.262V9.86201H79.9684L79.9495 10.2421L80.349 10.262ZM80.3489 10.2626V10.6626H80.7295L80.7485 10.2826L80.3489 10.2626ZM73.465 16.5948L73.0663 16.5619L73.0305 16.9948H73.465V16.5948ZM79.7655 16.5948V16.9948H80.7759L80.0393 16.3032L79.7655 16.5948ZM78.3602 15.2754L78.634 14.9838L78.6306 14.9807L78.3602 15.2754ZM78.2092 14.6501L77.8342 14.5111V14.5111L78.2092 14.6501ZM78.7311 14.2738L78.7198 13.874L78.7179 13.8741L78.7311 14.2738ZM79.1481 14.4361L78.8696 14.7233L78.8744 14.7278L79.1481 14.4361ZM81.5719 16.7097L81.2982 17.0014L81.3142 17.0165L81.3319 17.0297L81.5719 16.7097ZM81.5775 16.7143L81.317 17.0178L81.3249 17.0246L81.3332 17.031L81.5775 16.7143ZM81.8019 17.1853L81.402 17.1758L81.402 17.1764L81.8019 17.1853ZM81.7725 17.3553L82.1514 17.4834L82.152 17.4818L81.7725 17.3553ZM81.7251 17.4601L81.3792 17.259L81.3747 17.2672L81.7251 17.4601ZM81.7027 17.4972L81.3688 17.2769L81.368 17.2781L81.7027 17.4972ZM81.688 17.5189L82.0046 17.7633L82.0122 17.7536L82.0191 17.7434L81.688 17.5189ZM81.6668 17.5457L81.9707 17.8062L81.9792 17.7955L81.6668 17.5457ZM81.6666 17.5459L81.9624 17.8155L81.9703 17.8062L81.6666 17.5459ZM81.6661 17.5465L81.3705 17.2771L81.3701 17.2775L81.6661 17.5465ZM81.6639 17.5489L81.3679 17.2798L81.3628 17.2855L81.6639 17.5489ZM81.6587 17.5549L81.9532 17.8257L81.9597 17.8183L81.6587 17.5549ZM81.6406 17.574L81.3578 17.2911L81.3577 17.2912L81.6406 17.574ZM81.618 17.5953L81.3503 17.2978L81.341 17.3068L81.618 17.5953ZM81.5979 17.6134L81.3384 17.309L81.3311 17.3151L81.3242 17.3217L81.5979 17.6134ZM79.1481 19.9119L78.8744 19.6202L78.8629 19.6311L78.8522 19.6428L79.1481 19.9119ZM78.7257 20.1012L78.7289 20.5012L78.7295 20.5012L78.7257 20.1012ZM78.3002 19.9194L78.0086 20.1932L78.0089 20.1935L78.3002 19.9194ZM78.1451 19.4834L78.5441 19.5122L78.5442 19.5115L78.1451 19.4834ZM78.3602 19.0736L78.6099 19.3861L78.6224 19.3761L78.634 19.3652L78.3602 19.0736ZM79.7712 17.7485L80.045 18.0401L80.7813 17.3486L79.7712 17.3485L79.7712 17.7485ZM73.465 17.7483L73.465 17.3483L73.0309 17.3483L73.0663 17.7809L73.465 17.7483ZM15.8539 70.1198L16.2539 70.1205V70.1198H15.8539ZM28.6688 89.6913H28.2688V90.0913H28.6688V89.6913ZM58.3758 89.6913V90.0913H58.7758V89.6913H58.3758ZM28.6688 85.9295V85.5295H28.2688V85.9295H28.6688ZM58.3758 85.9295H58.7758V85.5295H58.3758V85.9295ZM28.5479 53.6681L28.9379 53.5792L28.9378 53.5789L28.5479 53.6681ZM25.2835 39.3997L25.6734 39.3104L25.6023 38.9997H25.2835V39.3997ZM30.9546 33.2928V33.6928H31.2037L31.3136 33.4693L30.9546 33.2928ZM36.4872 22.038L36.8462 22.2145L36.8872 22.131V22.038H36.4872ZM36.4872 22.0374L36.1283 21.861L36.0872 21.9444V22.0374H36.4872ZM41.5168 21.7853L41.1773 21.9968L41.1773 21.9968L41.5168 21.7853ZM41.6568 24.5783L41.2979 24.4018L41.2978 24.4018L41.6568 24.5783ZM37.3734 33.2928L37.0144 33.1164L36.7311 33.6928H37.3734V33.2928ZM49.6731 33.2928V33.6928H50.3154L50.032 33.1164L49.6731 33.2928ZM45.3896 24.5782L45.7486 24.4017L45.7485 24.4016L45.3896 24.5782ZM45.5296 21.7851L45.1901 21.5736L45.1901 21.5736L45.5296 21.7851ZM50.5598 22.0373H50.9598V21.9442L50.9187 21.8607L50.5598 22.0373ZM50.5598 22.0379H50.1598V22.1309L50.2008 22.2144L50.5598 22.0379ZM56.0919 33.2928L55.7329 33.4693L55.8428 33.6928H56.0919V33.2928ZM61.763 39.3997V38.9997H61.4442L61.373 39.3104L61.763 39.3997ZM58.4979 53.6688L58.108 53.5795L58.108 53.5797L58.4979 53.6688ZM62.8498 34.6015H63.2498V34.2015L62.8498 34.2015L62.8498 34.6015ZM55.7064 34.6016L55.7064 34.2014L55.6933 34.2019L55.7064 34.6016ZM62.8498 38.091V38.491H63.2498V38.091H62.8498ZM61.272 38.091L61.2582 38.491H61.272V38.091ZM61.2563 38.0905L61.2701 37.6906L61.2607 37.6905L61.2563 38.0905ZM61.2417 38.0903L61.2461 37.6903H61.2417V38.0903ZM25.7745 38.091V38.491H25.7837L25.793 38.4906L25.7745 38.091ZM24.1978 38.091H23.7978V38.491H24.1978V38.091ZM24.1978 34.6021L24.1978 34.2021L23.7978 34.2021V34.6021H24.1978ZM31.3502 34.602L31.3536 34.202H31.3502L31.3502 34.602ZM31.3617 34.6021L31.3582 35.0021H31.3617V34.6021ZM36.3229 34.6021L36.6716 34.406L36.5569 34.2021H36.3229V34.6021ZM36.323 34.6022L35.9744 34.7983L36.0891 35.0022H36.323V34.6022ZM36.3429 34.6019L36.3429 34.2018L36.3306 34.2021L36.3429 34.6019ZM50.7011 34.6017L50.7151 34.2017H50.7011L50.7011 34.6017ZM55.6846 34.6021V35.0021H55.895L56.0142 34.8287L55.6846 34.6021ZM55.6847 34.602V34.202H55.4743L55.3551 34.3754L55.6847 34.602ZM49.3857 22.6147L49.7447 22.4382L48.9857 22.6147H49.3857ZM54.6343 33.2928V33.6928H55.2766L54.9933 33.1164L54.6343 33.2928ZM49.3857 22.6152L49.0269 22.7919L49.7857 22.6152H49.3857ZM46.6408 22.4776L46.9802 22.6894L46.9804 22.6891L46.6408 22.4776ZM46.5643 24.0022L46.2052 24.1785L46.2053 24.1787L46.5643 24.0022ZM51.1313 33.2928L50.7723 33.4693L50.8822 33.6928H51.1313V33.2928ZM35.9156 33.2928V33.6928H36.1647L36.2746 33.4693L35.9156 33.2928ZM32.412 33.2928L32.053 33.1164L31.7697 33.6928H32.412V33.2928ZM40.4826 24.0015L40.8416 24.178L40.8417 24.1778L40.4826 24.0015ZM40.4061 22.4769L40.0665 22.6884L40.0667 22.6887L40.4061 22.4769ZM37.6612 22.6145H37.2612L38.0201 22.7911L37.6612 22.6145ZM37.6612 22.614H38.0612L37.3022 22.4375L37.6612 22.614ZM57.2226 53.3775L57.6125 53.467L57.6126 53.4667L57.2226 53.3775ZM60.4202 39.3996L60.8102 39.4888L60.9221 38.9996H60.4202V39.3996ZM29.8237 53.3775L30.2137 53.2883L30.2137 53.2883L29.8237 53.3775ZM26.6262 39.3996V38.9996H26.1243L26.2362 39.4888L26.6262 39.3996ZM77.9707 0.600013C77.4313 0.602193 76.9955 1.04128 76.9977 1.58085L77.7977 1.57761C77.7973 1.48001 77.8762 1.4004 77.974 1.40001L77.9707 0.600013ZM82.7255 0.600003L77.9724 0.600009V1.40001L82.7255 1.4V0.600003ZM83.4186 0.886089C83.2343 0.701857 82.9841 0.599136 82.7241 0.600005L82.7268 1.4C82.7743 1.39984 82.8198 1.41869 82.853 1.45181L83.4186 0.886089ZM83.7047 1.58057C83.7056 1.32055 83.6029 1.07034 83.4186 0.886108L82.8529 1.4518C82.8861 1.48494 82.9049 1.53039 82.9047 1.57787L83.7047 1.58057ZM83.7047 4.54249V1.57922H82.9047V4.54249H83.7047ZM87.4042 5.81698C86.1649 5.04921 84.8171 4.4866 83.3961 4.15308L83.2133 4.93191C84.5485 5.2453 85.816 5.77411 86.9829 6.49705L87.4042 5.81698ZM89.0102 3.77399L86.9107 5.87422L87.4765 6.43981L89.576 4.33957L89.0102 3.77399ZM89.7021 3.4868C89.4421 3.4868 89.1928 3.59054 89.0096 3.77459L89.5766 4.33897C89.6097 4.30566 89.655 4.2868 89.7021 4.2868V3.4868ZM90.3943 3.77426C90.2111 3.59072 89.9623 3.4868 89.7021 3.4868V4.2868C89.7489 4.2868 89.7942 4.30548 89.8279 4.3393L90.3943 3.77426ZM93.7501 7.13429L90.3941 3.77412L89.8281 4.33944L93.184 7.69962L93.7501 7.13429ZM93.7507 8.51232C94.1294 8.13146 94.1294 7.51578 93.7507 7.13492L93.1834 7.699C93.2518 7.76781 93.2518 7.87943 93.1834 7.94825L93.7507 8.51232ZM91.6505 10.6133L93.7499 8.51308L93.1842 7.94749L91.0847 10.0477L91.6505 10.6133ZM93.3707 14.1312C93.0372 12.7092 92.4767 11.3606 91.7075 10.1198L91.0276 10.5413C91.7514 11.7089 92.2783 12.977 92.5918 14.3138L93.3707 14.1312ZM95.9496 13.8225H92.9813V14.6225H95.9496V13.8225ZM96.9252 14.7955C96.923 14.2584 96.4879 13.8234 95.9502 13.8225L95.9489 14.6225C96.0459 14.6227 96.1248 14.7011 96.1252 14.7987L96.9252 14.7955ZM96.9252 19.5498V14.7971H96.1252V19.5498H96.9252ZM95.9505 20.5244C96.4876 20.523 96.923 20.0887 96.9252 19.5514L96.1252 19.5481C96.1248 19.6454 96.0461 19.7241 95.9486 19.7244L95.9505 20.5244ZM95.5496 20.1241V20.1244H96.3496V20.1241H95.5496ZM92.986 20.5241H95.9496V19.7241H92.986V20.5241ZM91.7113 24.2278C92.4802 22.9869 93.0422 21.6378 93.3754 20.2153L92.5965 20.0329C92.2833 21.3697 91.7551 22.6383 91.0312 23.8064L91.7113 24.2278ZM93.7502 25.8338L91.6543 23.7345L91.0882 24.2997L93.184 26.399L93.7502 25.8338ZM93.7509 27.2119C94.1294 26.8308 94.1294 26.2156 93.7509 25.8345L93.1833 26.3983C93.252 26.4674 93.2519 26.579 93.1833 26.6481L93.7509 27.2119ZM90.3942 30.5726L93.7501 27.2126L93.1841 26.6473L89.8282 30.0072L90.3942 30.5726ZM89.7022 30.8599C89.962 30.8599 90.2111 30.7565 90.3947 30.5721L89.8277 30.0077C89.7944 30.0412 89.7493 30.0599 89.7022 30.0599V30.8599ZM89.0093 30.5717C89.1929 30.7567 89.4426 30.8599 89.7022 30.8599V30.0599C89.6547 30.0599 89.6097 30.041 89.577 30.008L89.0093 30.5717ZM86.9065 28.4691L89.0103 30.5727L89.576 30.007L87.4721 27.9034L86.9065 28.4691ZM86.2228 29.1769C86.6248 28.9802 87.0175 28.7631 87.3999 28.5264L86.9787 27.8462C86.6188 28.0691 86.2492 28.2733 85.8711 28.4583L86.2228 29.1769ZM86.447 72.3826V28.8176H85.647V72.3826H86.447ZM82.0135 76.8161C84.4585 76.8161 86.447 74.8276 86.447 72.3826H85.647C85.647 74.3858 84.0167 76.0161 82.0135 76.0161V76.8161ZM82.0126 76.8161H82.0135V76.0161H82.0126V76.8161ZM51.0653 76.8161H82.0126V76.0161H51.0653V76.8161ZM50.6654 76.4223C50.6785 77.2578 50.7757 78.8208 51.2592 80.4521C51.7417 82.08 52.6222 83.82 54.2335 84.9491L54.6926 84.294C53.2877 83.3094 52.4821 81.763 52.0262 80.2248C51.5713 78.69 51.4778 77.207 51.4653 76.4098L50.6654 76.4223ZM54.4631 85.0215H58.5808V84.2215H54.4631V85.0215ZM58.5808 85.0215C58.9685 85.0215 59.2848 85.3378 59.2848 85.7255H60.0848C60.0848 84.896 59.4104 84.2215 58.5808 84.2215V85.0215ZM59.2848 85.7255V89.896H60.0848V85.7255H59.2848ZM59.2848 89.896C59.2848 90.2837 58.9685 90.6 58.5808 90.6V91.4C59.4104 91.4 60.0848 90.7256 60.0848 89.896H59.2848ZM58.5808 90.6H28.4653V91.4H58.5808V90.6ZM28.4653 90.6C28.0775 90.6 27.7613 90.2837 27.7613 89.896H26.9613C26.9613 90.7256 27.6357 91.4 28.4653 91.4V90.6ZM27.7613 89.896V85.7255H26.9613V89.896H27.7613ZM27.7613 85.7255C27.7613 85.3378 28.0775 85.0215 28.4653 85.0215V84.2215C27.6357 84.2215 26.9613 84.896 26.9613 85.7255H27.7613ZM28.4653 85.0215H32.5837V84.2215H28.4653V85.0215ZM32.8132 84.9492C34.4285 83.8178 35.3101 82.0777 35.7924 80.4499C36.2757 78.8189 36.3713 77.257 36.3832 76.4218L35.5833 76.4104C35.572 77.2069 35.48 78.6885 35.0254 80.2227C34.5699 81.7601 33.7634 83.3069 32.3543 84.2939L32.8132 84.9492ZM5.03347 76.8161H35.9833V76.0161H5.03347V76.8161ZM0.6 72.3826C0.6 74.8276 2.58845 76.8161 5.03347 76.8161V76.0161C3.03028 76.0161 1.4 74.3858 1.4 72.3826H0.6ZM0.6 16.1199V72.3826H1.4V16.1199H0.6ZM5.03347 11.6864C2.58845 11.6864 0.6 13.6748 0.6 16.1199H1.4C1.4 14.1167 3.03027 12.4864 5.03347 12.4864V11.6864ZM68.4153 11.6864H5.03347V12.4864H68.4153V11.6864ZM68.9902 10.1199C68.6306 10.7004 68.3154 11.3044 68.0477 11.9287L68.7829 12.2441C69.0347 11.657 69.3313 11.0884 69.6703 10.5413L68.9902 10.1199ZM66.9481 8.51313L69.0473 10.6134L69.6132 10.0478L67.514 7.94758L66.9481 8.51313ZM66.9476 7.13482C66.5684 7.51572 66.5684 8.13166 66.9476 8.51256L67.5145 7.94815C67.4461 7.87937 67.4461 7.76801 67.5145 7.69924L66.9476 7.13482ZM70.3085 3.774L66.9482 7.13418L67.5139 7.69988L70.8742 4.3397L70.3085 3.774ZM71.0004 3.48688C70.7401 3.48688 70.4913 3.59079 70.3082 3.77433L70.8745 4.33938C70.9082 4.30555 70.9536 4.28688 71.0004 4.28688V3.48688ZM71.6929 3.77467C71.5097 3.59061 71.2603 3.48688 71.0004 3.48688V4.28688C71.0474 4.28688 71.0927 4.30573 71.1259 4.33904L71.6929 3.77467ZM73.7917 5.87429L71.6923 3.77406L71.1265 4.33964L73.226 6.43988L73.7917 5.87429ZM77.3062 4.16213C75.889 4.49505 74.5376 5.0497 73.2983 5.81699L73.7194 6.49718C74.8838 5.77627 76.1546 5.25444 77.4892 4.94093L77.3062 4.16213ZM76.9977 1.57923V4.55153H77.7977V1.57923H76.9977ZM5.03347 13.7952H67.9356V12.9952H5.03347V13.7952ZM2.7088 16.1199C2.7088 14.8382 3.75173 13.7952 5.03347 13.7952V12.9952C3.30989 12.9952 1.9088 14.3964 1.9088 16.1199H2.7088ZM2.7088 63.1143V16.1199H1.9088V63.1143H2.7088ZM2.3088 63.5143H84.7387V62.7143H2.3088V63.5143ZM84.3383 29.3716L84.3387 63.1143L85.1387 63.1143L85.1383 29.3716L84.3383 29.3716ZM83.3963 30.1859C83.8984 30.068 84.3914 29.9217 84.8739 29.7479L84.6027 28.9953C84.1492 29.1586 83.6856 29.2962 83.2134 29.4071L83.3963 30.1859ZM83.7049 32.7688V29.7965H82.9049V32.7688H83.7049ZM83.4187 33.4619C83.603 33.2776 83.7057 33.0274 83.7049 32.7674L82.9049 32.7701C82.905 32.8176 82.8862 32.8631 82.8531 32.8962L83.4187 33.4619ZM82.7242 33.748C82.9842 33.7488 83.2345 33.6461 83.4187 33.4619L82.8531 32.8962C82.8199 32.9293 82.7745 32.9481 82.7269 32.948L82.7242 33.748ZM77.9724 33.748H82.7256V32.948H77.9724V33.748ZM76.9977 32.7672C76.9955 33.3067 77.4313 33.7458 77.9707 33.748L77.974 32.948C77.8762 32.9476 77.7973 32.868 77.7977 32.7704L76.9977 32.7672ZM76.9977 29.8042V32.7688H77.7977V29.8042H76.9977ZM73.2935 28.5353C74.5337 29.3038 75.887 29.8606 77.3064 30.1936L77.4891 29.4147C76.1529 29.1013 74.8804 28.5775 73.7149 27.8553L73.2935 28.5353ZM71.6922 30.5728L73.7871 28.4782L73.2214 27.9125L71.1265 30.0071L71.6922 30.5728ZM71.0004 30.8599C71.2599 30.8599 71.5096 30.7567 71.6932 30.5718L71.1255 30.0081C71.0928 30.0411 71.0478 30.0599 71.0004 30.0599V30.8599ZM70.3078 30.5721C70.4914 30.7565 70.7405 30.8599 71.0004 30.8599V30.0599C70.9532 30.0599 70.9081 30.0412 70.8748 30.0078L70.3078 30.5721ZM66.9482 27.2129L70.3085 30.5728L70.8742 30.0071L67.5139 26.6472L66.9482 27.2129ZM66.9474 25.8344C66.5684 26.2155 66.5684 26.831 66.9474 27.2121L67.5147 26.648C67.446 26.5789 67.446 26.4676 67.5147 26.3985L66.9474 25.8344ZM69.052 23.73L66.9482 25.8336L67.5139 26.3993L69.6177 24.2957L69.052 23.73ZM67.3317 20.2158C67.665 21.6367 68.227 22.984 68.9948 24.2235L69.6749 23.8022C68.9519 22.6352 68.4238 21.3683 68.1106 20.0331L67.3317 20.2158ZM64.7519 20.5244H67.7212V19.7244H64.7519V20.5244ZM63.7773 19.5515C63.7794 20.0879 64.2139 20.5222 64.7503 20.5244L64.7535 19.7244C64.6563 19.724 64.5776 19.6453 64.5773 19.5482L63.7773 19.5515ZM63.7773 14.7971V19.5499H64.5773V14.7971H63.7773ZM64.7503 13.8226C64.2138 13.8248 63.7794 14.2591 63.7773 14.7955L64.5773 14.7988C64.5776 14.7017 64.6563 14.623 64.7535 14.6226L64.7503 13.8226ZM67.7122 13.8226H64.7519V14.6226H67.7122V13.8226ZM67.5531 13.2781C67.467 13.5592 67.3902 13.8437 67.3228 14.1313L68.1016 14.3139C68.165 14.0437 68.2372 13.7765 68.3181 13.5123L67.5531 13.2781ZM84.7387 64.023H2.3088V64.823H84.7387V64.023ZM2.7088 72.3826V64.423H1.9088V72.3826H2.7088ZM5.03347 74.7073C3.75184 74.7073 2.7088 73.6638 2.7088 72.3826H1.9088C1.9088 74.1055 3.30991 75.5073 5.03347 75.5073V74.7073ZM82.0141 74.7073H5.03347V75.5073H82.0141V74.7073ZM84.3388 72.3826C84.3388 73.6637 83.2958 74.7073 82.0141 74.7073V75.5073C83.7377 75.5073 85.1388 74.1055 85.1388 72.3826H84.3388ZM84.3387 64.423L84.3388 72.3826L85.1388 72.3826L85.1387 64.423L84.3387 64.423ZM36.8945 76.4124C36.88 77.9992 36.5789 81.8299 34.2614 84.3508L34.8504 84.8922C37.386 82.1339 37.6797 78.0285 37.6945 76.4197L36.8945 76.4124ZM34.5559 85.0215H52.4918V84.2215H34.5559V85.0215ZM52.7862 84.3508C50.4687 81.8299 50.1676 77.9993 50.153 76.4124L49.3531 76.4197C49.3678 78.0286 49.6616 82.134 52.1973 84.8922L52.7862 84.3508ZM37.2945 76.8161H49.7531V76.0161H37.2945V76.8161ZM78.5516 2.5538H82.1509V1.7538H78.5516V2.5538ZM78.9514 4.92211L78.9516 2.15383L78.1516 2.15377L78.1514 4.92205L78.9514 4.92211ZM78.1579 5.88077C78.6177 5.79273 78.9506 5.39115 78.9514 4.92283L78.1514 4.92133C78.1513 5.00621 78.091 5.07903 78.0074 5.09504L78.1579 5.88077ZM73.9118 7.63796C75.1953 6.77164 76.6382 6.17532 78.1588 5.88059L78.0065 5.09521C76.3807 5.41034 74.8373 6.04812 73.4642 6.97486L73.9118 7.63796ZM72.6732 7.5221C73.0056 7.85313 73.5263 7.90105 73.9135 7.63681L73.4625 6.97602C73.3923 7.02392 73.2979 7.01517 73.2377 6.95526L72.6732 7.5221ZM70.7171 5.56181L72.6723 7.52122L73.2386 6.95614L71.2834 4.99674L70.7171 5.56181ZM68.7408 8.10411L71.2831 5.56213L70.7174 4.99642L68.1752 7.53839L68.7408 8.10411ZM70.6918 9.49371L68.7412 7.53872L68.1749 8.10377L70.1254 10.0588L70.6918 9.49371ZM70.8077 10.7294C71.0688 10.3432 71.021 9.82641 70.6929 9.4949L70.1243 10.0576C70.1836 10.1176 70.1924 10.2112 70.145 10.2813L70.8077 10.7294ZM69.0457 14.9847C69.3407 13.4628 69.9404 12.0137 70.8078 10.7292L70.1449 10.2815C69.217 11.6554 68.5758 13.2051 68.2603 14.8325L69.0457 14.9847ZM68.0878 15.7729C68.5534 15.7725 68.9541 15.4438 69.0453 14.9868L68.2607 14.8303C68.2442 14.9132 68.1716 14.9729 68.087 14.9729L68.0878 15.7729ZM65.3275 15.7729H68.0874V14.9729H65.3275V15.7729ZM65.7275 18.9705V15.3729H64.9275V18.9705H65.7275ZM68.0954 18.5705H65.3275V19.3705H68.0954V18.5705ZM69.055 19.3641C68.9669 18.9038 68.5645 18.5705 68.0954 18.5705V19.3705C68.1802 19.3705 68.2532 19.4308 68.2692 19.5144L69.055 19.3641ZM70.8124 23.6144C69.9464 22.331 69.3498 20.8839 69.0548 19.3631L68.2694 19.5154C68.5848 21.1409 69.2225 22.6885 70.1492 24.0619L70.8124 23.6144ZM70.6958 24.8492C71.0248 24.518 71.0731 24.0007 70.8124 23.6143L70.1493 24.0619C70.1966 24.132 70.1876 24.2256 70.1283 24.2853L70.6958 24.8492ZM70.012 24.567V24.5672H70.812V24.567H70.012ZM68.736 26.8039L70.6945 24.8502L70.1295 24.2838L68.171 26.2375L68.736 26.8039ZM71.2832 28.7845L68.7363 26.2379L68.1706 26.8036L70.7175 29.3502L71.2832 28.7845ZM72.6678 26.831L70.7173 28.7847L71.2834 29.3499L73.234 27.3962L72.6678 26.831ZM73.9085 26.7141C73.5208 26.4503 73.0001 26.4991 72.6683 26.8305L73.2336 27.3966C73.2937 27.3366 73.3881 27.3277 73.4584 27.3755L73.9085 26.7141ZM78.1589 28.4752C76.6371 28.1803 75.1924 27.5808 73.9072 26.7133L73.4596 27.3763C74.8337 28.3039 76.3788 28.9452 78.0067 29.2606L78.1589 28.4752ZM78.9516 29.4348C78.9516 28.9656 78.6183 28.5631 78.1579 28.4751L78.0076 29.2608C78.0913 29.2768 78.1516 29.3498 78.1516 29.4348H78.9516ZM78.9516 32.1941V29.4348H78.1516V32.1941H78.9516ZM82.1509 31.7941H78.5516V32.5941H82.1509V31.7941ZM81.7509 29.4258V32.1941H82.5509V29.4258H81.7509ZM82.5369 28.4667C82.0793 28.5578 81.75 28.9599 81.7509 29.4266L82.5509 29.4251C82.5507 29.3406 82.6104 29.2678 82.6932 29.2513L82.5369 28.4667ZM86.7906 26.7089C85.5071 27.5751 84.0598 28.1715 82.5389 28.4663L82.6911 29.2517C84.3168 28.9366 85.8646 28.2989 87.2381 27.372L86.7906 26.7089ZM88.0238 26.8249C87.6931 26.4976 87.1776 26.4486 86.7911 26.7085L87.2376 27.3724C87.3076 27.3253 87.401 27.334 87.4612 27.3936L88.0238 26.8249ZM87.3425 27.109V27.1092H88.1425V27.109H87.3425ZM89.9847 28.7808L88.025 26.8258L87.46 27.3921L89.4196 29.3471L89.9847 28.7808ZM91.9615 26.2382L89.4193 28.7812L89.985 29.3468L92.5273 26.8038L91.9615 26.2382ZM90.011 24.8535L91.9616 26.8039L92.5272 26.2381L90.5766 24.2878L90.011 24.8535ZM89.8901 23.6144C89.6276 24.0034 89.6786 24.5242 90.0123 24.8548L90.5753 24.2865C90.5149 24.2266 90.5057 24.1325 90.5532 24.062L89.8901 23.6144ZM90.2214 24.2382H90.2217V23.4382H90.2214V24.2382ZM91.6521 19.3632C91.3571 20.8848 90.7575 22.3294 89.8899 23.6144L90.5529 24.062C91.4806 22.6882 92.1219 21.1432 92.4375 19.5155L91.6521 19.3632ZM92.6099 18.5706C92.1416 18.5715 91.74 18.9042 91.6519 19.3641L92.4376 19.5146C92.4536 19.431 92.5264 19.3708 92.6114 19.3706L92.6099 18.5706ZM95.3703 18.5706H92.6106V19.3706H95.3703V18.5706ZM94.9703 15.373V18.9706H95.7703V15.373H94.9703ZM92.606 15.773H95.3703V14.973H92.606V15.773ZM91.6481 14.9869C91.7393 15.4438 92.1401 15.7726 92.6057 15.773L92.6064 14.973C92.5218 14.9729 92.4492 14.9133 92.4327 14.8304L91.6481 14.9869ZM89.8855 10.7326C90.7521 12.0165 91.3528 13.4647 91.6477 14.9848L92.4331 14.8325C92.1176 13.2065 91.4753 11.6579 90.5486 10.285L89.8855 10.7326ZM90.0064 9.49787C89.677 9.82723 89.6261 10.3431 89.8841 10.7305L90.55 10.2871C90.5031 10.2166 90.5125 10.1231 90.572 10.0636L90.0064 9.49787ZM91.9613 7.53879L90.006 9.49819L90.5723 10.0633L92.5275 8.10386L91.9613 7.53879ZM89.4196 5.56715L91.9618 8.10444L92.527 7.53821L89.9847 5.00092L89.4196 5.56715ZM88.0294 7.5176L89.9846 5.56723L89.4197 5.00084L87.4644 6.95121L88.0294 7.5176ZM86.7952 7.63338C87.1809 7.89382 87.6968 7.84581 88.0279 7.51914L87.466 6.94968C87.4061 7.00879 87.3126 7.01744 87.2429 6.97038L86.7952 7.63338ZM87.0188 7.70188H87.019V6.90188H87.0188V7.70188ZM82.539 5.8727C84.0612 6.1677 85.5105 6.76617 86.795 7.63339L87.2426 6.97037C85.8684 6.04255 84.3186 5.40269 82.6912 5.08731L82.539 5.8727ZM81.7509 4.9124C81.7501 5.37904 82.0794 5.78113 82.5369 5.8723L82.6932 5.08772C82.6104 5.07122 82.5508 4.99841 82.5509 4.91391L81.7509 4.9124ZM81.7509 2.1538V4.91315H82.5509V2.1538H81.7509ZM80.349 8.70822C75.6793 8.70822 71.8827 12.5042 71.8827 17.1736H72.6827C72.6827 12.9461 76.121 9.50821 80.349 9.50821V8.70822ZM88.8198 17.1736C88.8198 12.504 85.0187 8.70822 80.349 8.70822V9.50821C84.5775 9.50821 88.0198 12.9465 88.0198 17.1736H88.8198ZM80.349 25.6402C85.0186 25.6402 88.8198 21.8434 88.8198 17.1736H88.0198C88.0198 21.4011 84.5773 24.8402 80.349 24.8402V25.6402ZM71.8827 17.1736C71.8827 21.8429 75.6791 25.6402 80.349 25.6402V24.8402C76.121 24.8402 72.6827 21.4011 72.6827 17.1736H71.8827ZM80.349 10.662C83.9537 10.662 86.8659 13.5699 86.8659 17.1736H87.6659C87.6659 13.1273 84.3947 9.86201 80.349 9.86201V10.662ZM80.7485 10.2826L80.7485 10.282L79.9495 10.2421L79.9494 10.2427L80.7485 10.2826ZM73.8636 16.6278C74.1405 13.2815 76.9297 10.6626 80.3489 10.6626V9.86262C76.5096 9.86262 73.3772 12.8046 73.0663 16.5619L73.8636 16.6278ZM79.7655 16.1948H73.465V16.9948H79.7655V16.1948ZM78.0864 15.567L79.4917 16.8865L80.0393 16.3032L78.634 14.9838L78.0864 15.567ZM77.8342 14.5111C77.6963 14.8833 77.7975 15.3019 78.0897 15.5701L78.6306 14.9807C78.5777 14.9321 78.5594 14.8562 78.5843 14.7891L77.8342 14.5111ZM78.7179 13.8741C78.3208 13.8872 77.9719 14.1394 77.8342 14.5111L78.5843 14.7891C78.6094 14.7215 78.6726 14.676 78.7443 14.6736L78.7179 13.8741ZM79.4266 14.1489C79.2376 13.9657 78.9827 13.8666 78.7198 13.874L78.7424 14.6737C78.7896 14.6724 78.8355 14.6902 78.8696 14.7232L79.4266 14.1489ZM81.8455 16.4179L79.4218 14.1444L78.8744 14.7278L81.2982 17.0014L81.8455 16.4179ZM81.8381 16.4108C81.8367 16.4096 81.8257 16.4001 81.8119 16.3897L81.3319 17.0297C81.3266 17.0257 81.3225 17.0224 81.3199 17.0203C81.3176 17.0184 81.316 17.0169 81.317 17.0178L81.8381 16.4108ZM82.2018 17.1949C82.2092 16.884 82.0685 16.5879 81.8219 16.3976L81.3332 17.031C81.3776 17.0653 81.4033 17.1189 81.402 17.1758L82.2018 17.1949ZM82.152 17.4818C82.1832 17.3882 82.1996 17.2911 82.2018 17.1943L81.402 17.1764C81.4016 17.1949 81.3984 17.2127 81.393 17.2288L82.152 17.4818ZM82.0709 17.6612C82.1043 17.6037 82.1309 17.5441 82.1514 17.4834L81.3936 17.2272C81.3894 17.2397 81.3845 17.2501 81.3793 17.2591L82.0709 17.6612ZM82.0366 17.7175C82.0504 17.6966 82.0634 17.6751 82.0755 17.6531L81.3747 17.2672C81.373 17.2704 81.371 17.2736 81.3688 17.2769L82.0366 17.7175ZM82.0191 17.7434C82.0209 17.7407 82.0216 17.7396 82.0254 17.7341C82.0284 17.7298 82.0326 17.7235 82.0373 17.7163L81.368 17.2781C81.3679 17.2784 81.3672 17.2793 81.3653 17.2821C81.3642 17.2838 81.3635 17.2848 81.3619 17.2872C81.3605 17.2892 81.3588 17.2916 81.357 17.2944L82.0191 17.7434ZM81.9792 17.7955C81.9861 17.7869 81.9953 17.7754 82.0046 17.7633L81.3714 17.2744C81.3669 17.2803 81.3618 17.2867 81.3544 17.296L81.9792 17.7955ZM81.9703 17.8062L81.9705 17.8061L81.3631 17.2854L81.3629 17.2856L81.9703 17.8062ZM81.9617 17.8159L81.9623 17.8153L81.371 17.2765L81.3705 17.2771L81.9617 17.8159ZM81.9599 17.8179L81.9621 17.8155L81.3701 17.2775L81.3679 17.2799L81.9599 17.8179ZM81.9597 17.8183L81.965 17.8122L81.3628 17.2855L81.3576 17.2916L81.9597 17.8183ZM81.9235 17.8568C81.9365 17.8438 81.948 17.8312 81.9531 17.8256L81.3642 17.2842C81.3611 17.2876 81.3595 17.2893 81.3582 17.2906C81.3571 17.2919 81.3571 17.2919 81.3578 17.2911L81.9235 17.8568ZM81.8855 17.8927C81.8966 17.8827 81.9098 17.8705 81.9235 17.8568L81.3577 17.2912C81.357 17.2919 81.3548 17.2941 81.3504 17.298L81.8855 17.8927ZM81.8573 17.9178C81.8677 17.909 81.8808 17.8975 81.8949 17.8839L81.341 17.3068C81.3422 17.3056 81.3419 17.3059 81.3384 17.309L81.8573 17.9178ZM79.4218 20.2036L81.8716 17.9051L81.3242 17.3217L78.8744 19.6202L79.4218 20.2036ZM78.7295 20.5012C79.0019 20.4986 79.2607 20.3827 79.4441 20.181L78.8522 19.6428C78.8187 19.6797 78.7715 19.7008 78.7219 19.7012L78.7295 20.5012ZM78.0089 20.1935C78.1955 20.3919 78.4566 20.5034 78.7289 20.5012L78.7225 19.7012C78.6729 19.7016 78.6254 19.6813 78.5915 19.6453L78.0089 20.1935ZM77.7462 19.4546C77.7265 19.7271 77.8223 19.9947 78.0086 20.1932L78.5918 19.6456C78.5576 19.6092 78.5406 19.5606 78.5441 19.5122L77.7462 19.4546ZM78.1105 18.7611C77.8975 18.9314 77.7653 19.1831 77.7461 19.4552L78.5442 19.5115C78.5476 19.4622 78.5716 19.4168 78.6099 19.3861L78.1105 18.7611ZM79.4973 17.457L78.0864 18.7821L78.634 19.3652L80.045 18.0401L79.4973 17.457ZM73.465 18.1483L79.7711 18.1485L79.7712 17.3485L73.465 17.3483L73.465 18.1483ZM80.349 23.6851C76.9279 23.6851 74.138 21.0643 73.8637 17.7156L73.0663 17.7809C73.3744 21.541 76.5076 24.4851 80.349 24.4851V23.6851ZM86.8659 17.1736C86.8659 20.7772 83.9537 23.6851 80.349 23.6851V24.4851C84.3948 24.4851 87.6659 21.2198 87.6659 17.1736H86.8659ZM8.98478 71.1741H15.1995V70.3741H8.98478V71.1741ZM7.93044 70.1198C7.93044 70.7018 8.40176 71.1741 8.98478 71.1741V70.3741C8.84406 70.3741 8.73044 70.2604 8.73044 70.1198H7.93044ZM8.98478 69.0655C8.40176 69.0655 7.93044 69.5378 7.93044 70.1198H8.73044C8.73044 69.9792 8.84406 69.8655 8.98478 69.8655V69.0655ZM15.1995 69.0655H8.98478V69.8655H15.1995V69.0655ZM16.2539 70.1198C16.2539 69.5378 15.7826 69.0655 15.1995 69.0655V69.8655C15.3403 69.8655 15.4539 69.9792 15.4539 70.1198H16.2539ZM15.1995 71.1741C15.7823 71.1741 16.2529 70.7015 16.2539 70.1205L15.4539 70.1191C15.4537 70.2606 15.3393 70.3741 15.1995 70.3741V71.1741ZM28.6688 90.0913H58.3758V89.2913H28.6688V90.0913ZM28.2688 85.9295V89.6913H29.0688V85.9295H28.2688ZM58.3758 85.5295H28.6688V86.3295H58.3758V85.5295ZM58.7758 89.6913V85.9295H57.9758V89.6913H58.7758ZM31.574 56.4809H55.4718V55.6809H31.574V56.4809ZM28.1579 53.7571C28.5234 55.36 29.9293 56.4809 31.574 56.4809V55.6809C30.3024 55.6809 29.2203 54.8179 28.9379 53.5792L28.1579 53.7571ZM24.8935 39.4889L28.158 53.7574L28.9378 53.5789L25.6734 39.3104L24.8935 39.4889ZM24.1978 39.7997H25.2835V38.9997H24.1978V39.7997ZM22.4891 38.091C22.4891 39.034 23.2556 39.7997 24.1978 39.7997V38.9997C23.6972 38.9997 23.2891 38.5919 23.2891 38.091H22.4891ZM22.4891 34.6015V38.091H23.2891V34.6015H22.4891ZM24.1978 32.8928C23.2555 32.8928 22.4891 33.6592 22.4891 34.6015H23.2891C23.2891 34.101 23.6973 33.6928 24.1978 33.6928V32.8928ZM30.9546 32.8928H24.1978V33.6928H30.9546V32.8928ZM36.1283 21.8616L30.5957 33.1163L31.3136 33.4693L36.8462 22.2145L36.1283 21.8616ZM36.0872 22.0374V22.038H36.8872V22.0374H36.0872ZM39.072 20.0279C37.8131 20.0279 36.6838 20.731 36.1283 21.861L36.8462 22.2139C37.2671 21.3577 38.118 20.8279 39.072 20.8279V20.0279ZM41.8563 21.5738C41.2541 20.6071 40.2122 20.0279 39.072 20.0279V20.8279C39.9358 20.8279 40.721 21.2644 41.1773 21.9968L41.8563 21.5738ZM42.0158 24.7548C42.5187 23.732 42.4592 22.5412 41.8563 21.5737L41.1773 21.9968C41.634 22.7296 41.6788 23.627 41.2979 24.4018L42.0158 24.7548ZM37.7324 33.4693L42.0158 24.7547L41.2978 24.4018L37.0144 33.1164L37.7324 33.4693ZM49.6731 32.8928H37.3734V33.6928H49.6731V32.8928ZM45.0306 24.7546L49.3141 33.4693L50.032 33.1164L45.7486 24.4017L45.0306 24.7546ZM45.1901 21.5736C44.5872 22.5411 44.5277 23.7319 45.0306 24.7547L45.7485 24.4016C45.3675 23.6269 45.4124 22.7295 45.8691 21.9967L45.1901 21.5736ZM47.975 20.0278C46.8348 20.0278 45.7929 20.6063 45.1901 21.5736L45.8691 21.9967C46.3258 21.2638 47.111 20.8278 47.975 20.8278V20.0278ZM50.9187 21.8607C50.3703 20.7464 49.2167 20.0278 47.975 20.0278V20.8278C48.9116 20.8278 49.787 21.3729 50.2009 22.2139L50.9187 21.8607ZM50.9598 22.0379V22.0373H50.1598V22.0379H50.9598ZM56.4508 33.1164L50.9188 21.8615L50.2008 22.2144L55.7329 33.4693L56.4508 33.1164ZM62.8498 32.8928H56.0919V33.6928H62.8498V32.8928ZM64.5585 34.6015C64.5585 33.6585 63.792 32.8928 62.8498 32.8928V33.6928C63.3504 33.6928 63.7585 34.1006 63.7585 34.6015H64.5585ZM64.5585 38.091V34.6015H63.7585V38.091H64.5585ZM62.8498 39.7997C63.792 39.7997 64.5585 39.034 64.5585 38.091H63.7585C63.7585 38.5919 63.3504 38.9997 62.8498 38.9997V39.7997ZM61.763 39.7997H62.8498V38.9997H61.763V39.7997ZM58.8879 53.758L62.1529 39.4889L61.373 39.3104L58.108 53.5795L58.8879 53.758ZM55.4718 56.4809C57.1153 56.4809 58.5218 55.3601 58.8879 53.7578L58.108 53.5797C57.8251 54.8179 56.7423 55.6809 55.4718 55.6809V56.4809ZM62.8498 34.2015L55.7064 34.2016L55.7064 35.0016L62.8498 35.0015L62.8498 34.2015ZM63.2498 38.091V34.6015H62.4498V38.091H63.2498ZM61.272 38.491H62.8498V37.691H61.272V38.491ZM61.2426 38.4902L61.2582 38.4908L61.2857 37.6912L61.2701 37.6907L61.2426 38.4902ZM61.2373 38.4903L61.252 38.4904L61.2607 37.6905L61.2461 37.6903L61.2373 38.4903ZM25.8047 38.4903H61.2417V37.6903H25.8047V38.4903ZM25.793 38.4906C25.7968 38.4904 25.8007 38.4903 25.8047 38.4903V37.6903C25.7885 37.6903 25.7722 37.6907 25.756 37.6914L25.793 38.4906ZM24.1978 38.491H25.7745V37.691H24.1978V38.491ZM23.7978 34.6021V38.091H24.5978V34.6021H23.7978ZM31.3502 34.202L24.1978 34.2021L24.1978 35.0021L31.3502 35.002L31.3502 34.202ZM31.3651 34.2021L31.3536 34.202L31.3467 35.002L31.3582 35.0021L31.3651 34.2021ZM36.3229 34.2021H31.3617V35.0021H36.3229V34.2021ZM36.6716 34.4061L36.6716 34.406L35.9743 34.7982L35.9744 34.7983L36.6716 34.4061ZM36.3306 34.2021C36.3282 34.2022 36.3257 34.2022 36.323 34.2022V35.0022C36.3336 35.0022 36.3443 35.0021 36.3551 35.0018L36.3306 34.2021ZM50.7011 34.2017L36.3429 34.2019L36.3429 35.0019L50.7011 35.0017L50.7011 34.2017ZM50.724 34.2021C50.721 34.2021 50.718 34.2021 50.7151 34.202L50.6871 35.0015C50.6994 35.0019 50.7117 35.0021 50.724 35.0021V34.2021ZM55.6846 34.2021H50.724V35.0021H55.6846V34.2021ZM55.3551 34.3754L55.355 34.3755L56.0142 34.8287L56.0143 34.8286L55.3551 34.3754ZM55.6933 34.2019C55.6903 34.2019 55.6875 34.202 55.6847 34.202V35.002C55.6965 35.002 55.7081 35.0018 55.7195 35.0014L55.6933 34.2019ZM49.0268 22.7911L54.2753 33.4693L54.9933 33.1164L49.7447 22.4382L49.0268 22.7911ZM49.7857 22.6152V22.6147H48.9857V22.6152H49.7857ZM47.975 22.1367C48.4173 22.1367 48.8312 22.3945 49.0269 22.7919L49.7446 22.4386C49.4146 21.7682 48.7227 21.3367 47.975 21.3367V22.1367ZM46.9804 22.6891C47.1963 22.3423 47.5663 22.1367 47.975 22.1367V21.3367C47.2898 21.3367 46.6632 21.6851 46.3013 22.2661L46.9804 22.6891ZM46.9234 23.8259C46.7432 23.4589 46.7642 23.0355 46.9802 22.6894L46.3015 22.2658C45.9385 22.8475 45.9037 23.5644 46.2052 24.1785L46.9234 23.8259ZM51.4903 33.1164L46.9233 23.8258L46.2053 24.1787L50.7723 33.4693L51.4903 33.1164ZM54.6343 32.8928H51.1313V33.6928H54.6343V32.8928ZM35.9156 32.8928H32.412V33.6928H35.9156V32.8928ZM40.1236 23.8251L35.5566 33.1164L36.2746 33.4693L40.8416 24.178L40.1236 23.8251ZM40.0667 22.6887C40.2827 23.0348 40.3037 23.4582 40.1235 23.8252L40.8417 24.1778C41.1432 23.5636 41.1084 22.8468 40.7454 22.2651L40.0667 22.6887ZM39.0719 22.136C39.4806 22.136 39.8506 22.3416 40.0665 22.6884L40.7456 22.2655C40.3837 21.6844 39.7571 21.336 39.0719 21.336V22.136ZM38.0201 22.7911C38.2193 22.3861 38.6206 22.136 39.0719 22.136V21.336C38.3153 21.336 37.6358 21.7598 37.3022 22.438L38.0201 22.7911ZM37.2612 22.614V22.6145H38.0612V22.614H37.2612ZM32.771 33.4693L38.0201 22.7904L37.3022 22.4375L32.053 33.1164L32.771 33.4693ZM57.6126 53.4667L60.8102 39.4888L60.0303 39.3104L56.8327 53.2883L57.6126 53.4667ZM55.4714 55.1733C56.5006 55.1733 57.3822 54.47 57.6125 53.467L56.8328 53.288C56.6858 53.9282 56.1271 54.3733 55.4714 54.3733V55.1733ZM31.5749 55.1733H55.4714V54.3733H31.5749V55.1733ZM29.4338 53.4667C29.6635 54.4707 30.5448 55.1733 31.5749 55.1733V54.3733C30.918 54.3733 30.3601 53.9287 30.2137 53.2883L29.4338 53.4667ZM26.2362 39.4888L29.4338 53.4667L30.2137 53.2883L27.0161 39.3104L26.2362 39.4888ZM60.4202 38.9996H26.6262V39.7996H60.4202V38.9996ZM49.3529 51.2866C49.3529 51.8686 49.8242 52.3409 50.4072 52.3409V51.5409C50.2665 51.5409 50.1529 51.4272 50.1529 51.2866H49.3529ZM49.3529 42.8869V51.2866H50.1529V42.8869H49.3529ZM50.4072 41.8326C49.8242 41.8326 49.3529 42.3049 49.3529 42.8869H50.1529C50.1529 42.7463 50.2665 42.6326 50.4072 42.6326V41.8326ZM51.4616 42.8869C51.4616 42.3049 50.9903 41.8326 50.4072 41.8326V42.6326C50.548 42.6326 50.6616 42.7463 50.6616 42.8869H51.4616ZM51.4616 51.2866V42.8869H50.6616V51.2866H51.4616ZM50.4072 52.3409C50.9894 52.3409 51.4616 51.8688 51.4616 51.2866H50.6616C50.6616 51.427 50.5476 51.5409 50.4072 51.5409V52.3409ZM43.523 51.5409C43.3823 51.5409 43.2687 51.4272 43.2687 51.2866H42.4686C42.4686 51.8686 42.94 52.3409 43.523 52.3409V51.5409ZM43.7773 51.2866C43.7773 51.4272 43.6637 51.5409 43.523 51.5409V52.3409C44.106 52.3409 44.5773 51.8686 44.5773 51.2866H43.7773ZM43.7773 42.8869V51.2866H44.5773V42.8869H43.7773ZM43.523 42.6326C43.6637 42.6326 43.7773 42.7463 43.7773 42.8869H44.5773C44.5773 42.3049 44.106 41.8326 43.523 41.8326V42.6326ZM43.2687 42.8869C43.2687 42.7463 43.3823 42.6326 43.523 42.6326V41.8326C42.94 41.8326 42.4686 42.3049 42.4686 42.8869H43.2687ZM43.2687 51.2866V42.8869H42.4686V51.2866H43.2687ZM35.5845 51.2866C35.5845 51.8686 36.0558 52.3409 36.6388 52.3409V51.5409C36.4981 51.5409 36.3845 51.4272 36.3845 51.2866H35.5845ZM35.5845 42.8869V51.2866H36.3845V42.8869H35.5845ZM36.6388 41.8326C36.0558 41.8326 35.5845 42.3049 35.5845 42.8869H36.3845C36.3845 42.7463 36.4981 42.6326 36.6388 42.6326V41.8326ZM37.6931 42.8869C37.6931 42.3049 37.2218 41.8326 36.6388 41.8326V42.6326C36.7795 42.6326 36.8931 42.7463 36.8931 42.8869H37.6931ZM37.6931 51.2866V42.8869H36.8931V51.2866H37.6931ZM36.6388 52.3409C37.2218 52.3409 37.6931 51.8686 37.6931 51.2866H36.8931C36.8931 51.4272 36.7795 51.5409 36.6388 51.5409V52.3409Z"
          fill="url(#paint1_linear_4_401)" mask="url(#path-4-outside-1_4_401)"/>
    <defs>
        <linearGradient id="paint0_linear_4_401" x1="3.27273" y1="16.4545" x2="48.7626" y2="91"
                        gradientUnits="userSpaceOnUse">
            <stop stop-color="#7BBFFF"/>
            <stop offset="1" stop-color="#62D7FF"/>
        </linearGradient>
        <linearGradient id="paint1_linear_4_401" x1="2.81818" y1="14.1818" x2="48.7626" y2="91"
                        gradientUnits="userSpaceOnUse">
            <stop stop-color="#7BBFFF"/>
            <stop offset="1" stop-color="#62D7FF"/>
        </linearGradient>
    </defs>
</svg>
