<svg width="98" height="104" viewBox="0 0 98 104" fill="none" xmlns="http://www.w3.org/2000/svg">
    <path fill-rule="evenodd" clip-rule="evenodd"
          d="M97.9991 78.2617H94.4478L94.448 103.557H0.914856V34.2536H6.94166C4.96957 30.8442 3.92111 27.0051 3.92111 23.0006C3.92111 10.5618 14.0404 0.442505 26.4792 0.442505C30.5642 0.442505 34.529 1.54976 38.0122 3.62681C41.3838 1.61778 45.3069 0.442505 49.5084 0.442505C61.9463 0.442505 72.0665 10.5618 72.0665 23.0006C72.0665 27.0042 71.0189 30.8423 69.046 34.2536H94.4478L94.4487 57.4931H98L97.9991 78.2617ZM68.1508 75.5488H95.2871L95.2866 60.207H68.1479L64.0903 67.8471L68.1508 75.5488ZM65.8403 34.2516C68.1331 30.9341 69.3548 27.0618 69.3548 22.9986C69.3548 12.056 60.4523 3.15347 49.5106 3.15347C38.5679 3.15347 29.6654 12.056 29.6654 22.9986C29.6654 27.0608 30.888 30.9331 33.1808 34.2516H38.0323C35.1111 31.2662 33.4069 27.2428 33.4069 22.9986C33.4069 14.1189 40.6306 6.89421 49.5106 6.89421C58.3905 6.89421 65.6143 14.1189 65.6143 22.9986C65.6143 27.2425 63.9101 31.2662 60.9889 34.2516H65.8403ZM54.2636 28.8041L55.1285 27.0308L57.5766 27.0309L56.1732 29.8867C55.4712 31.3232 54.5277 31.9856 52.8821 31.9856H51.2479V34.2528H59.0102C62.3079 31.4634 64.2581 27.3547 64.2581 22.9998C64.2581 14.8684 57.642 8.25221 49.5105 8.25221C41.3791 8.25221 34.7629 14.8677 34.7629 22.9998C34.7629 27.3544 36.7132 31.4631 40.0109 34.2528H48.9815V31.9856H47.3472C45.7017 31.9856 44.7582 31.3232 44.0561 29.8867L42.0368 25.7761C41.664 25.0248 41.4444 24.3179 41.4444 23.4558C41.4444 22.4831 41.6195 21.8869 42.0586 21.0031L44.0779 16.9152C44.8245 15.3898 45.7679 14.7937 47.4579 14.7937H48.9824V11.7685H51.2478V14.7937H52.7722C54.4622 14.7937 55.4066 15.3898 56.1522 16.9152L57.4448 19.5317H55.0158L54.221 17.9316C53.815 17.114 53.6523 17.0099 52.7723 17.0052V17.0099H47.4572V17.0052C46.5762 17.0099 46.4144 17.114 46.0084 17.9316L44.0988 21.7762C43.8131 22.3733 43.638 22.7708 43.638 23.4559C43.638 24.0527 43.822 24.4234 44.0711 24.9252L44.0988 24.9812L45.9639 28.8041C46.3775 29.6576 46.6046 29.7646 47.4562 29.774V29.7703H52.7713V29.774C53.623 29.7646 53.8491 29.6576 54.2636 28.8041ZM11.7298 22.9996C11.7298 27.3542 13.6811 31.4619 16.9798 34.2526L24.8121 34.2528V31.9855H23.1779C21.5323 31.9855 20.5889 31.3231 19.8867 29.8867L17.8674 25.776C17.4946 25.0247 17.275 24.3178 17.275 23.4558C17.275 22.483 17.4501 21.8868 17.8892 21.003L19.9085 16.9151C20.6551 15.3898 21.5985 14.7936 23.2886 14.7936L23.3217 14.7946H24.813V11.7694H27.0784V14.7946H28.5176C29.3096 12.7742 30.3846 10.8987 31.6952 9.20961C30.0365 8.57941 28.2896 8.25199 26.4784 8.25199C18.346 8.25199 11.7298 14.8675 11.7298 22.9996ZM27.7824 17.0096H23.3217L23.2896 17.0088V17.0041C22.4086 17.0088 22.2468 17.1129 21.8409 17.9305L19.9313 21.7751C19.6455 22.3722 19.4705 22.7697 19.4705 23.4547C19.4705 24.0516 19.6544 24.4223 19.9035 24.9241L19.9313 24.9801L21.7964 28.803C22.2099 29.6565 22.437 29.7635 23.2887 29.7729V29.7691H27.9897C27.3093 27.6013 26.9497 25.3284 26.9497 22.9986C26.9497 20.9224 27.2544 18.9201 27.7824 17.0096ZM28.7127 31.9852H27.0785L27.0776 34.2515H29.9703C29.5416 33.5106 29.1498 32.7536 28.8111 31.9738C28.7961 31.9747 28.7824 31.977 28.7686 31.9793L28.7686 31.9793C28.751 31.9822 28.7333 31.9852 28.7127 31.9852ZM26.4787 3.15322C15.536 3.15322 6.63348 12.0557 6.63348 22.9984L6.63372 22.9982C6.63372 27.0633 7.85638 30.9344 10.1492 34.2502H15.0006C12.0784 31.2648 10.3733 27.2404 10.3733 22.9972C10.3733 14.1175 17.5989 6.8928 26.4787 6.8928C28.6107 6.8928 30.6583 7.32146 32.5944 8.12106C33.4849 7.11051 34.4576 6.17654 35.5137 5.33815C32.7288 3.91118 29.6458 3.15322 26.4787 3.15322ZM3.62819 96.6442V100.844L91.7322 100.842V78.2585H87.5847V79.6136C87.5847 79.9883 87.2809 80.2921 86.9062 80.2921C86.5315 80.2921 86.2277 79.9883 86.2277 79.6136V78.2585H66.5095L61.0183 67.84L66.5124 57.4906H86.228V56.1337C86.228 55.7589 86.5317 55.4552 86.9065 55.4552C87.2812 55.4552 87.5849 55.7589 87.5849 56.1337V57.4906H91.7324V36.9642H66.5559C66.555 36.9642 66.554 36.9652 66.5531 36.9652C66.5521 36.9652 66.5502 36.9642 66.5493 36.9642H3.62863V41.1619H6.14482C6.51955 41.1619 6.8233 41.4656 6.8233 41.8403C6.8233 42.2151 6.51955 42.5188 6.14482 42.5188H3.62863V54.5288L19.3111 54.5298L21.285 49.1805H32.185C32.4472 47.7678 33.119 46.4165 34.2091 45.3264C35.601 43.9345 37.452 43.168 39.4193 43.168C41.3875 43.168 43.2385 43.9345 44.6295 45.3264C46.0215 46.7184 46.7889 48.5684 46.7889 50.5366C46.7889 52.5049 46.0215 54.3549 44.6295 55.7468C43.2385 57.1388 41.3875 57.9053 39.4193 57.9053C37.452 57.9053 35.6011 57.1388 34.2091 55.7478C33.119 54.6577 32.4471 53.3064 32.185 51.8937H23.1764L21.2025 57.2429H3.62839V71.0557H19.3099L21.2838 65.7065H32.2095C32.4877 64.3382 33.1501 63.0333 34.209 61.9744C35.6009 60.5825 37.4519 59.816 39.4192 59.816C41.3874 59.816 43.2383 60.5825 44.6294 61.9744C46.0213 63.3664 46.7887 65.2164 46.7887 67.1846C46.7887 69.1539 46.0213 71.0039 44.6294 72.3958C43.2384 73.7868 41.3874 74.5543 39.4192 74.5543C37.4519 74.5543 35.6009 73.7878 34.209 72.3958C33.0876 71.2745 32.4186 69.8769 32.1726 68.4206L23.1764 68.4196L21.2024 73.7689H3.62831V87.5824H19.3098L21.2837 82.2332H32.2453C32.5386 80.9113 33.1821 79.6509 34.2088 78.6242C35.6007 77.2322 37.4517 76.4658 39.419 76.4658C41.3872 76.4658 43.2382 77.2322 44.6292 78.6242C46.0212 80.0152 46.7886 81.8662 46.7886 83.8344C46.7886 85.8026 46.0212 87.6526 44.6292 89.0446C43.2382 90.4356 41.3872 91.2031 39.419 91.2031C37.4517 91.2031 35.6007 90.4366 34.2088 89.0446C33.0562 87.892 32.3882 86.4471 32.1601 84.9473H23.1762L21.2023 90.2965H3.62819V95.2872H6.14439C6.51912 95.2872 6.82287 95.591 6.82287 95.9657C6.82287 96.3405 6.51912 96.6442 6.14439 96.6442H3.62819ZM39.4199 79.1798C38.1774 79.1798 37.0078 79.6643 36.1278 80.5434C34.3128 82.3583 34.3128 85.3117 36.1278 87.1266C37.8889 88.8848 40.9538 88.8848 42.712 87.1266C43.592 86.2475 44.0765 85.0789 44.0765 83.8355C44.0765 82.5921 43.592 81.4234 42.712 80.5443C41.8319 79.6643 40.6642 79.1798 39.4199 79.1798ZM39.4199 62.5311C38.1774 62.5311 37.0078 63.0146 36.1278 63.8946C34.3128 65.7095 34.3128 68.663 36.1278 70.4789C37.8889 72.237 40.9538 72.237 42.712 70.4789C43.592 69.5988 44.0765 68.4311 44.0765 67.1868C44.0765 65.9433 43.592 64.7747 42.712 63.8946C41.8319 63.0156 40.6642 62.5311 39.4199 62.5311ZM39.4199 45.8823C38.1774 45.8823 37.0078 46.3659 36.1278 47.2459C34.3128 49.0601 34.3128 52.0142 36.1278 53.8301C37.8889 55.5892 40.9538 55.5864 42.712 53.8301C43.592 52.95 44.0765 51.7814 44.0765 50.538C44.0765 49.2946 43.592 48.1259 42.712 47.2459C41.8319 46.3668 40.6642 45.8823 39.4199 45.8823ZM80.5083 71.6609C79.4976 72.6715 78.1549 73.228 76.7251 73.228C75.2963 73.228 73.9526 72.6725 72.941 71.6609C71.9304 70.6503 71.374 69.3076 71.374 67.8778C71.374 66.449 71.9304 65.1053 72.941 64.0946C74.963 62.0734 78.487 62.0734 80.5083 64.0946C81.5198 65.1053 82.0772 66.448 82.0772 67.8778C82.0772 69.3066 81.5189 70.6503 80.5083 71.6609ZM76.7251 63.8836C75.6568 63.8836 74.6547 64.299 73.9006 65.0532C73.1454 65.8073 72.731 66.8104 72.731 67.8777C72.731 68.9451 73.1454 69.9481 73.9006 70.7023C75.4088 72.2116 78.0423 72.2116 79.5497 70.7023C80.3048 69.9472 80.7212 68.9451 80.7212 67.8777C80.7212 66.8104 80.3048 65.8073 79.5497 65.0532C78.7956 64.299 77.7925 63.8836 76.7251 63.8836ZM86.909 83.4847C86.5343 83.4847 86.2306 83.7884 86.2306 84.1632V88.7091C86.2306 89.0839 86.5343 89.3876 86.909 89.3876C87.2838 89.3876 87.5875 89.0839 87.5875 88.7091V84.1632C87.5875 83.7884 87.2838 83.4847 86.909 83.4847ZM86.2307 93.2546C86.2307 92.8799 86.5345 92.5761 86.9092 92.5761L86.9092 92.5762C87.2839 92.5762 87.5877 92.879 87.5877 93.2547V95.9676C87.5877 96.3423 87.2839 96.646 86.9092 96.646H84.1963C83.8215 96.646 83.5178 96.3423 83.5178 95.9676C83.5178 95.5928 83.8215 95.2891 84.1963 95.2891H86.2307V93.2546ZM16.5516 95.2891H11.3489C10.9742 95.2891 10.6704 95.5929 10.6704 95.9676C10.6704 96.3423 10.9742 96.6461 11.3489 96.6461H16.5516C16.9263 96.6461 17.2301 96.3423 17.2301 95.9676C17.2301 95.5929 16.9273 95.2891 16.5516 95.2891ZM21.7577 95.2891H26.9611C27.3359 95.2891 27.6396 95.5929 27.6396 95.9676C27.6396 96.3423 27.3359 96.6461 26.9611 96.6461H21.7577C21.383 96.6461 21.0792 96.3423 21.0792 95.9676C21.0792 95.5929 21.383 95.2891 21.7577 95.2891ZM37.3655 95.2891H32.1628C31.7881 95.2891 31.4843 95.5929 31.4843 95.9676C31.4843 96.3423 31.7881 96.6461 32.1628 96.6461H37.3655C37.7402 96.6461 38.044 96.3423 38.044 95.9676C38.044 95.5929 37.7402 95.2891 37.3655 95.2891ZM73.7891 95.2891H78.9925C79.3672 95.2891 79.67 95.5929 79.671 95.9676C79.671 96.3423 79.3672 96.6461 78.9925 96.6461H73.7891C73.4143 96.6461 73.1106 96.3423 73.1106 95.9676C73.1106 95.5929 73.4143 95.2891 73.7891 95.2891ZM47.7719 95.2891H42.5684C42.1937 95.2891 41.89 95.5929 41.89 95.9676C41.89 96.3423 42.1937 96.6461 42.5684 96.6461H47.7719C48.1466 96.6461 48.4503 96.3423 48.4503 95.9676C48.4503 95.5929 48.1466 95.2891 47.7719 95.2891ZM52.9757 95.2891H58.1791C58.5538 95.2891 58.8576 95.5929 58.8576 95.9676C58.8576 96.3423 58.5538 96.6461 58.1791 96.6461H52.9757C52.6009 96.6461 52.2972 96.3423 52.2972 95.9676C52.2972 95.5929 52.6009 95.2891 52.9757 95.2891ZM68.5884 95.2891H63.385C63.0103 95.2891 62.7066 95.5929 62.7066 95.9676C62.7066 96.3423 63.0103 96.6461 63.385 96.6461H68.5884C68.9632 96.6461 69.2669 96.3423 69.2669 95.9676C69.266 95.5929 68.9632 95.2891 68.5884 95.2891ZM47.7719 41.1666C48.1466 41.1666 48.4503 41.4704 48.4503 41.8451C48.4503 42.2198 48.1466 42.5236 47.7719 42.5236H42.5684C42.1937 42.5236 41.89 42.2198 41.89 41.8451C41.89 41.4704 42.1937 41.1666 42.5684 41.1666H47.7719ZM26.9579 41.1644H21.7545C21.3798 41.1644 21.076 41.4681 21.076 41.8428C21.076 42.2176 21.3798 42.5213 21.7545 42.5213H26.9579C27.3327 42.5213 27.6364 42.2176 27.6364 41.8428C27.6364 41.4681 27.3336 41.1644 26.9579 41.1644ZM11.3478 41.1644H16.5512C16.9269 41.1644 17.2297 41.4681 17.2297 41.8428C17.2297 42.2176 16.926 42.5213 16.5512 42.5213H11.3478C10.9731 42.5213 10.6693 42.2176 10.6693 41.8428C10.6693 41.4681 10.9731 41.1644 11.3478 41.1644ZM63.3824 42.5233H68.5858C68.9605 42.5233 69.2643 42.2196 69.2643 41.8448C69.2643 41.4701 68.9605 41.1664 68.5858 41.1664H63.3824C63.0076 41.1664 62.7039 41.4701 62.7039 41.8448C62.7039 42.2196 63.0076 42.5233 63.3824 42.5233ZM58.1784 42.5233H52.9757C52.6009 42.5233 52.2972 42.2196 52.2972 41.8448C52.2972 41.4701 52.6009 41.1664 52.9757 41.1664H58.1784C58.5531 41.1664 58.8568 41.4701 58.8568 41.8448C58.8568 42.2196 58.5531 42.5233 58.1784 42.5233ZM73.7891 42.5233H78.9917C79.3665 42.5233 79.6702 42.2196 79.6702 41.8448C79.6702 41.4701 79.3665 41.1664 78.9917 41.1664H73.7891C73.4143 41.1664 73.1106 41.4701 73.1106 41.8448C73.1115 42.2196 73.4143 42.5233 73.7891 42.5233ZM32.1617 41.1644H37.3652C37.7399 41.1644 38.0436 41.4681 38.0436 41.8428C38.0436 42.2176 37.7399 42.5213 37.3652 42.5213H32.1617C31.787 42.5213 31.4833 42.2176 31.4833 41.8428C31.4833 41.4681 31.787 41.1644 32.1617 41.1644ZM84.1962 42.5234H86.2307V44.5579C86.2307 44.9326 86.5345 45.2364 86.9092 45.2364C87.2839 45.2364 87.5877 44.9326 87.5877 44.5579V41.845C87.5877 41.4703 87.2839 41.1665 86.9092 41.1665H84.1963C83.8216 41.1665 83.5178 41.4703 83.5178 41.845C83.5178 42.2197 83.8216 42.5235 84.1963 42.5235L84.1962 42.5234ZM86.2306 48.4174C86.2306 48.0427 86.5343 47.7389 86.909 47.7389C87.2838 47.7389 87.5875 48.0417 87.5875 48.4174V52.2773C87.5875 52.652 87.2838 52.9558 86.909 52.9558C86.5343 52.9558 86.2306 52.652 86.2306 52.2773V48.4174Z"
          fill="url(#paint0_linear_4_343)"/>
    <defs>
        <linearGradient id="paint0_linear_4_343" x1="0.914857" y1="3.95778" x2="91.1404" y2="103.557"
                        gradientUnits="userSpaceOnUse">
            <stop stop-color="#C743F7"/>
            <stop offset="1" stop-color="#C743F7"/>
        </linearGradient>
    </defs>
</svg>
